<?xml version="1.0" encoding="utf-8"?>
<!-- Generator: Adobe Illustrator 19.0.0, SVG Export Plug-In . SVG Version: 6.00 Build 0)  -->
<svg version="1.1" id="图层_1" xmlns="http://www.w3.org/2000/svg" xmlns:xlink="http://www.w3.org/1999/xlink" x="0px" y="0px"
	 viewBox="18 -63 259 509" style="enable-background:new 18 -63 259 509;" xml:space="preserve">
<style type="text/css">
	.st0{fill:#FFFFFF;stroke:#C7C7C7;stroke-miterlimit:10;}
	.st1{fill:#D8D8D8;}
	.st2{fill:#CACADD;}
	.st3{fill:#A0A0A0;}
	.st4{fill:#666666;}
	.st5{fill:#C7C7C7;}
	.st6{fill:url(#SVGID_1_);}
	.st7{fill:url(#SVGID_2_);}
	.st8{fill:#A8878F;}
	.st9{fill:#A98A8F;}
	.st10{fill:#AA8D8E;}
	.st11{fill:#A67F8C;}
	.st12{fill:#99888C;}
	.st13{fill:#9B9B8D;}
	.st14{fill:#968B90;}
	.st15{fill:#98938F;}
	.st16{fill:#937F8F;}
	.st17{fill:#928792;}
	.st18{fill:#97888C;}
	.st19{fill:#A57E8D;}
	.st20{fill:#A17D8C;}
	.st21{fill:#A37E8D;}
	.st22{fill:#9C7B8A;}
	.st23{fill:#A5828E;}
	.st24{fill:#86829B;}
	.st25{fill:#7B7CA1;}
	.st26{fill:#7D7B9B;}
	.st27{fill:#957E98;}
	.st28{fill:#857F97;}
	.st29{fill:#958497;}
	.st30{fill:#8F7B97;}
	.st31{fill:#807596;}
	.st32{fill:#83779C;}
	.st33{fill:#627195;}
	.st34{fill:#5A7096;}
	.st35{fill:#79759C;}
	.st36{fill:#656D9A;}
	.st37{fill:#6877AE;}
	.st38{fill:#5970B9;}
	.st39{fill:#4E6BBC;}
	.st40{fill:#446CB1;}
	.st41{fill:#586EAB;}
	.st42{fill:#6171A6;}
	.st43{fill:#4669BF;}
	.st44{fill:#4968BE;}
	.st45{fill:#426ABA;}
	.st46{fill:#3A68BB;}
	.st47{fill:#456AB7;}
	.st48{fill:#3867BB;}
	.st49{fill:#2F66AB;}
	.st50{fill:#506BB0;}
	.st51{fill:#536DAC;}
	.st52{fill:#3B66B5;}
	.st53{fill:#5D71AF;}
	.st54{fill:#546FB4;}
	.st55{fill:#466CB8;}
	.st56{opacity:0.05;}
</style>
<path class="st0" d="M18.5,407.5v-433c0-20.9,17.1-37,38-37h182c20.9,0,38,16.1,38,37v433c0,20.9-17.1,38-38,38h-182
	C35.6,445.5,18.5,428.4,18.5,407.5z"/>
<g>
	<path class="st1" d="M238.5,443.5h-182c-20.9,0-37.5-17.1-37.5-38v2c0,20.9,16.6,37.5,37.5,37.5h182c20.9,0,37.5-16.1,37.5-37v-2.5
		C276,426.4,259.4,443.5,238.5,443.5z"/>
</g>
<rect id="XMLID_6_" x="21" y="-14" class="st2" width="253" height="409"/>
<path class="st3" d="M161.7-43.7h-32.8c-1.6,0-2.9-1.3-2.9-2.9v0c0-1.6,1.3-2.9,2.9-2.9h32.8c1.6,0,2.9,1.3,2.9,2.9v0
	C164.7-45,163.4-43.7,161.7-43.7z"/>
<circle class="st3" cx="171" cy="-46.5" r="2.5"/>
<circle class="st3" cx="179.5" cy="-46.5" r="2.5"/>
<circle class="st3" cx="217.7" cy="-46.8" r="4.3"/>
<g>
	<path class="st4" d="M128.9-47.9h32.8c1.3,0,2.5,0.9,2.8,2.1c0.1-0.2,0.1-0.5,0.1-0.8c0-1.6-1.3-2.9-2.9-2.9h-32.8
		c-1.6,0-2.9,1.3-2.9,2.9c0,0.3,0,0.5,0.1,0.8C126.5-47,127.6-47.9,128.9-47.9z"/>
</g>
<g>
	<path class="st4" d="M171-48c1.2,0,2.2,0.9,2.4,2c0-0.2,0.1-0.3,0.1-0.5c0-1.4-1.1-2.5-2.5-2.5c-1.4,0-2.5,1.1-2.5,2.5
		c0,0.2,0,0.3,0.1,0.5C168.8-47.1,169.8-48,171-48z"/>
</g>
<g>
	<path class="st4" d="M179.5-48c1.2,0,2.2,0.9,2.4,2c0-0.2,0.1-0.3,0.1-0.5c0-1.4-1.1-2.5-2.5-2.5c-1.4,0-2.5,1.1-2.5,2.5
		c0,0.2,0,0.3,0.1,0.5C177.3-47.1,178.3-48,179.5-48z"/>
</g>
<g>
	<path class="st4" d="M217.7-50c2.2,0,4,1.6,4.3,3.8c0-0.2,0.1-0.4,0.1-0.6c0-2.4-1.9-4.3-4.3-4.3s-4.3,1.9-4.3,4.3
		c0,0.2,0,0.4,0.1,0.6C213.7-48.4,215.5-50,217.7-50z"/>
</g>
<path class="st5" d="M161,408.5c4.4,0,8,3.6,8,8c0,4.4-3.6,8-8,8h-28c-4.4,0-8-3.6-8-8c0-4.4,3.6-8,8-8H161 M161,406.5h-28
	c-5.5,0-10,4.5-10,10l0,0c0,5.5,4.5,10,10,10h28c5.5,0,10-4.5,10-10l0,0C171,411,166.5,406.5,161,406.5L161,406.5z"/>
<linearGradient id="SVGID_1_" gradientUnits="userSpaceOnUse" x1="21" y1="19.25" x2="116" y2="19.25">
	<stop  offset="0" style="stop-color:#9A908C"/>
	<stop  offset="1" style="stop-color:#98858C"/>
</linearGradient>
<polygon class="st6" points="21,-14 21,-1 83,52.5 116,-14 "/>
<linearGradient id="SVGID_2_" gradientUnits="userSpaceOnUse" x1="83" y1="19.25" x2="177.5" y2="19.25">
	<stop  offset="0" style="stop-color:#9A908C"/>
	<stop  offset="1" style="stop-color:#98858C"/>
</linearGradient>
<polyline class="st7" points="177.5,37 116,-14 83,52.5 177.5,37 "/>
<polygon class="st8" points="179.5,-14 116,-14 177.5,37 "/>
<polygon class="st9" points="179.5,-14 231,-14 177.5,37 "/>
<polygon class="st10" points="229,31 247.5,-14 231,-14 177.5,37 "/>
<polygon class="st11" points="274,-14 247.5,-14 229,31 274,20 "/>
<polygon class="st12" points="39,101 83,52.5 21,-1 "/>
<polygon class="st13" points="21,-1 21,96 39,101 "/>
<polygon class="st14" points="21,106 39,101 21,96 "/>
<polygon class="st15" points="21,147.5 39,101 21,106 "/>
<polygon class="st16" points="90,149 83,52.5 39,101 "/>
<polygon class="st17" points="90,149 21,147.4 39,101 "/>
<polygon class="st18" points="90,149 182.1,100.9 83,52.5 "/>
<polygon class="st19" points="177.5,36.9 182,101 83,52.5 "/>
<polygon class="st20" points="229,31 177.5,37 182,101 "/>
<polygon class="st21" points="229,31 218,149 182,101 "/>
<polygon class="st22" points="274,92.5 229,31 274,20 "/>
<polygon class="st23" points="218,149 274,111.5 274,92.4 229,31 "/>
<polygon class="st24" points="90,149 21,225.5 21,147 "/>
<polygon class="st25" points="90,149 57.5,257.5 21,225.5 "/>
<polygon class="st26" points="149,203 90,149 57.5,257.5 "/>
<polygon class="st27" points="149,203 182,101 218,149 "/>
<polygon class="st28" points="90,149 182,101 149,203 "/>
<path class="st29" d="M256.5,181.5L274,132v-20.5c0,0-55.6,37-56,37.5C219.1,150.3,256.5,181.5,256.5,181.5z"/>
<polygon class="st30" points="274,165.5 256.5,181 274,132 "/>
<polygon class="st31" points="274,184.5 256.5,181 274,165.5 "/>
<polygon class="st32" points="274,212.5 274,184.5 256.5,181 "/>
<polygon class="st33" points="256.5,181 274,212.5 182,263 "/>
<polygon class="st34" points="274,281 182,263 274,212.5 "/>
<polygon class="st35" points="218,149 182,263 256.5,181 "/>
<polygon class="st36" points="149,203 218,149 182,263 "/>
<polygon class="st37" points="21,225.5 57.5,257.5 21,316 "/>
<polygon class="st38" points="57.5,257.5 21,316 21,372.5 "/>
<polygon class="st39" points="55,353 21,372.5 57.5,257.5 "/>
<polygon class="st40" points="132.5,300.5 57.5,257.5 55,353 "/>
<polygon class="st41" points="132.5,300.5 149,203 57.5,257.5 "/>
<polygon class="st42" points="182,263 149,203 132.5,300.5 "/>
<polygon class="st43" points="21,395 55,353 21,372.5 "/>
<polygon class="st44" points="105.5,395 55,353 21,395 "/>
<polygon class="st45" points="132.5,300.5 105.5,395 55,353 "/>
<polygon class="st46" points="134.5,395 132.5,300.5 105.5,395 "/>
<polygon class="st47" points="222.5,365 132.5,300.5 134.5,395 "/>
<polygon class="st48" points="173.5,395 222,365 134.5,395 "/>
<polygon class="st49" points="247,395 222,365 172.5,395 "/>
<polygon class="st50" points="182,263 132.5,300.5 222.5,365 "/>
<polygon class="st51" points="214,269 182,263 222,365.5 "/>
<polygon class="st52" points="247,395 214,269 222,365.5 "/>
<polygon class="st53" points="274,336 214,269 274,281 "/>
<polygon class="st54" points="247,395 274,336 214,269 "/>
<polygon class="st55" points="274,395 274,336 247,395 "/>
<polygon class="st56" points="246.5,395 21,395 21,-14 143,-14 "/>
</svg>
