<svg id="图层_1" data-name="图层 1" xmlns="http://www.w3.org/2000/svg" xmlns:xlink="http://www.w3.org/1999/xlink" width="365.11" height="734.56" viewBox="0 0 365.11 734.56"><defs><style>.cls-1{fill:none;}.cls-2,.cls-58{fill:#fff;}.cls-2{stroke:#c7c7c7;stroke-miterlimit:10;}.cls-3{fill:#d8d8d8;}.cls-4{fill:#a0a0a0;}.cls-5{fill:#666;}.cls-6{clip-path:url(#clip-path);}.cls-7{fill:url(#未命名的渐变_10);}.cls-8{fill:url(#未命名的渐变_15);}.cls-9{fill:#a8878f;}.cls-10{fill:#a98a8f;}.cls-11{fill:#aa8d8e;}.cls-12{fill:#a67f8c;}.cls-13{fill:#99888c;}.cls-14{fill:#9b9b8d;}.cls-15{fill:#968b90;}.cls-16{fill:#98938f;}.cls-17{fill:#928792;}.cls-18{fill:#97888c;}.cls-19{fill:#a57e8d;}.cls-20{fill:#a37e8d;}.cls-21{fill:#9c7b8a;}.cls-22{fill:#a5828e;}.cls-23{fill:#86829b;}.cls-24{fill:#7b7ca1;}.cls-25{fill:#957e98;}.cls-26{fill:#857f97;}.cls-27{fill:#958497;}.cls-28{fill:#8f7b97;}.cls-29{fill:#83779c;}.cls-30{fill:#5a7096;}.cls-31{fill:#79759c;}.cls-32{fill:#6877ae;}.cls-33{fill:#5970b9;}.cls-34{fill:#4e6bbc;}.cls-35{fill:#586eab;}.cls-36{fill:#6171a6;}.cls-37{fill:#4669bf;}.cls-38{fill:#4968be;}.cls-39{fill:#426aba;}.cls-40{fill:#3a68bb;}.cls-41{fill:#456ab7;}.cls-42{fill:#3867bb;}.cls-43{fill:#2f66ab;}.cls-44{fill:#506bb0;}.cls-45{fill:#536dac;}.cls-46{fill:#3b66b5;}.cls-47{fill:#5d71af;}.cls-48{fill:#546fb4;}.cls-49{fill:#466cb8;}.cls-50{fill:#937f8f;}.cls-51{fill:#a17d8c;}.cls-52{fill:#7d7b9b;}.cls-53{fill:#807596;}.cls-54{fill:#627195;}.cls-55{fill:#656d9a;}.cls-56{fill:#446cb1;}.cls-57{fill:#c7c7c7;}</style><clipPath id="clip-path" transform="translate(0.14)"><rect id="_剪贴路径_" data-name="&lt;剪贴路径&gt;" class="cls-1" x="21.15" y="82.41" width="321.91" height="568.57"/></clipPath><linearGradient id="未命名的渐变_10" y1="117.91" x2="136.43" y2="117.91" gradientUnits="userSpaceOnUse"><stop offset="0" stop-color="#9a908c"/><stop offset="1" stop-color="#98858c"/></linearGradient><linearGradient id="未命名的渐变_15" x1="89.04" y1="117.91" x2="224.76" y2="117.91" xlink:href="#未命名的渐变_10"/></defs><title>iphone1</title><path class="cls-2" d="M2.27,682.67V50.46a50,50,0,0,1,50-50H312.84a50,50,0,0,1,50,50V682.67a51.55,51.55,0,0,1-51.4,51.4H53.67A51.55,51.55,0,0,1,2.27,682.67Z" transform="translate(0.14)"/><path class="cls-3" d="M362.63,678.14v3.53c0,28.27-23,51.7-51.22,51.7H53.67c-28.27,0-51-23.43-51-51.7v-3.53a51.1,51.1,0,0,0,51,51.23H311.41A51.26,51.26,0,0,0,362.63,678.14Z" transform="translate(0.14)"/><circle class="cls-4" cx="183.56" cy="23.58" r="3.59"/><path class="cls-5" d="M183.43,21.42a3.59,3.59,0,0,1,3.52,2.87,3.59,3.59,0,1,0-7,0A3.59,3.59,0,0,1,183.43,21.42Z" transform="translate(0.14)"/><circle class="cls-4" cx="132.94" cy="44.78" r="5.54"/><path class="cls-5" d="M132.8,41.46a5.55,5.55,0,0,1,5.43,4.44,5.54,5.54,0,1,0-10.87,0A5.55,5.55,0,0,1,132.8,41.46Z" transform="translate(0.14)"/><g class="cls-6"><polygon class="cls-7" points="0 70.15 0 88.82 89.04 165.66 136.43 70.15 0 70.15"/><polyline class="cls-8" points="224.76 143.4 136.43 70.15 89.04 165.66 224.76 143.4"/><polygon class="cls-9" points="227.63 70.15 136.43 70.15 224.76 143.4 227.63 70.15"/><polygon class="cls-10" points="227.63 70.15 301.59 70.15 224.76 143.4 227.63 70.15"/><polygon class="cls-11" points="298.72 134.78 325.29 70.15 301.59 70.15 224.76 143.4 298.72 134.78"/><polygon class="cls-12" points="363.35 70.15 325.29 70.15 298.72 134.78 363.35 118.98 363.35 70.15"/><polygon class="cls-13" points="25.85 235.31 89.04 165.66 0 88.82 25.85 235.31"/><polygon class="cls-14" points="0 88.82 0 228.13 25.85 235.31 0 88.82"/><polygon class="cls-15" points="0 242.49 25.85 235.31 0 228.13 0 242.49"/><polygon class="cls-16" points="0 302.09 25.85 235.31 0 242.49 0 302.09"/><polygon class="cls-17" points="99.09 304.25 0.01 301.91 25.85 235.31 99.09 304.25"/><polygon class="cls-18" points="99.09 304.25 231.35 235.23 89.04 165.66 99.09 304.25"/><polygon class="cls-19" points="224.74 143.25 231.22 235.31 89.04 165.66 224.74 143.25"/><polygon class="cls-20" points="298.72 134.78 282.92 304.25 231.22 235.31 298.72 134.78"/><polygon class="cls-21" points="363.35 223.1 298.72 134.78 363.35 118.98 363.35 223.1"/><polygon class="cls-22" points="282.92 304.25 363.35 250.39 363.36 222.94 298.72 134.78 282.92 304.25"/><polygon class="cls-23" points="99.09 304.25 0 414.11 0 301.37 99.09 304.25"/><polygon class="cls-24" points="99.09 304.25 52.42 460.07 0 414.11 99.09 304.25"/><polygon class="cls-25" points="183.83 381.8 231.22 235.31 282.92 304.25 183.83 381.8"/><polygon class="cls-26" points="99.09 304.25 231.22 235.31 183.83 381.8 99.09 304.25"/><path class="cls-27" d="M338.08,350.92l25.13-71.09V250.39s-79.78,53.11-80.42,53.86C284.36,306.1,338.08,350.92,338.08,350.92Z" transform="translate(0.14)"/><polygon class="cls-28" points="363.35 327.94 338.21 350.2 363.35 279.83 363.35 327.94"/><polygon class="cls-29" points="363.35 395.44 363.35 355.23 338.21 350.2 363.35 395.44"/><polygon class="cls-30" points="363.35 493.82 231.22 467.97 363.35 395.44 363.35 493.82"/><polygon class="cls-31" points="282.92 304.25 231.22 467.97 338.21 350.2 282.92 304.25"/><polygon class="cls-32" points="0 414.11 52.42 460.07 0 544.08 0 414.11"/><polygon class="cls-33" points="52.42 460.07 0 544.08 0 625.23 52.42 460.07"/><polygon class="cls-34" points="48.83 597.22 0 625.23 52.42 460.07 48.83 597.22"/><polygon class="cls-35" points="160.13 521.82 183.81 381.75 52.42 460.07 160.13 521.82"/><polygon class="cls-36" points="231.22 467.97 183.83 381.8 160.13 521.82 231.22 467.97"/><polygon class="cls-37" points="0 657.54 48.83 597.22 0 625.23 0 657.54"/><polygon class="cls-38" points="121.36 657.54 48.83 597.22 0 657.54 121.36 657.54"/><polygon class="cls-39" points="160.13 521.82 121.36 657.54 48.83 597.22 160.13 521.82"/><polygon class="cls-40" points="163 657.54 160.13 521.82 121.36 657.54 163 657.54"/><polygon class="cls-41" points="289.38 614.45 160.13 521.82 163 657.54 289.38 614.45"/><polygon class="cls-42" points="219.01 657.54 288.67 614.45 163 657.54 219.01 657.54"/><polygon class="cls-43" points="324.57 657.54 288.67 614.45 217.58 657.54 324.57 657.54"/><polygon class="cls-44" points="231.22 467.97 160.13 521.82 289.38 614.45 231.22 467.97"/><polygon class="cls-45" points="277.18 476.58 231.22 467.97 288.67 615.17 277.18 476.58"/><polygon class="cls-46" points="324.57 657.54 277.18 476.58 288.67 615.17 324.57 657.54"/><polygon class="cls-47" points="363.35 572.8 277.18 476.58 363.35 493.82 363.35 572.8"/><polygon class="cls-48" points="324.57 657.54 363.35 572.8 277.18 476.58 324.57 657.54"/><polygon class="cls-49" points="363.35 657.54 363.35 572.8 324.57 657.54 363.35 657.54"/><polygon class="cls-50" points="99.09 304.25 89.04 165.66 25.85 235.31 99.09 304.25"/><polygon class="cls-51" points="298.72 134.78 224.76 143.4 231.22 235.31 298.72 134.78"/><polygon class="cls-52" points="183.83 381.8 99.09 304.25 52.42 460.07 183.83 381.8"/><polygon class="cls-53" points="363.35 355.23 338.21 350.2 363.35 327.94 363.35 355.23"/><polygon class="cls-54" points="338.21 350.2 363.35 395.44 231.22 467.97 338.21 350.2"/><polygon class="cls-55" points="183.83 381.8 282.92 304.25 231.22 467.97 183.83 381.8"/><polygon class="cls-56" points="160.13 521.82 52.42 460.07 48.83 597.22 160.13 521.82"/></g><circle class="cls-57" cx="182.99" cy="688.26" r="24.74"/><circle class="cls-58" cx="182.99" cy="688.26" r="22.1"/><rect class="cls-4" x="158.62" y="43.29" width="49.11" height="3.96" rx="1.98" ry="1.98"/><path class="cls-5" d="M207.6,45.31a1.77,1.77,0,0,1-.08.52,2,2,0,0,0-1.9-1.46H160.47a2,2,0,0,0-1.4.58,1.78,1.78,0,0,0-.5.86,1.88,1.88,0,0,1,.5-1.9,1.93,1.93,0,0,1,1.4-.54h45.15A2,2,0,0,1,207.6,45.31Z" transform="translate(0.14)"/><path class="cls-57" d="M363.06,139.69h0a2,2,0,0,1,2,2v45a2,2,0,0,1-2,2h0a0,0,0,0,1,0,0V139.69A0,0,0,0,1,363.06,139.69Z"/><path class="cls-57" d="M2,88.37H2a0,0,0,0,1,0,0v23.8a0,0,0,0,1,0,0H2a1.82,1.82,0,0,1-1.82-1.82V90.19A1.82,1.82,0,0,1,2,88.37Z"/><path class="cls-57" d="M2,141.44H2a0,0,0,0,1,0,0v46.8a0,0,0,0,1,0,0H2a1.82,1.82,0,0,1-1.82-1.82V143.26A1.82,1.82,0,0,1,2,141.44Z"/><path class="cls-57" d="M2,199.81H2a0,0,0,0,1,0,0v46.8a0,0,0,0,1,0,0H2a1.82,1.82,0,0,1-1.82-1.82V201.63A1.82,1.82,0,0,1,2,199.81Z"/></svg>