<?xml version="1.0" encoding="utf-8"?>
<!-- Generator: Adobe Illustrator 19.0.0, SVG Export Plug-In . SVG Version: 6.00 Build 0)  -->
<svg version="1.1" id="Layer_1" xmlns="http://www.w3.org/2000/svg" xmlns:xlink="http://www.w3.org/1999/xlink" x="0px" y="0px"
	 width="66px" height="43.1px" viewBox="-262 399.9 66 43.1" style="enable-background:new -262 399.9 66 43.1;"
	 xml:space="preserve">
<style type="text/css">
	.st0{fill:url(#SVGID_1_);}
	.st1{fill:#FFFFFF;}
</style>
<g id="logo_3_">
	
		<linearGradient id="SVGID_1_" gradientUnits="userSpaceOnUse" x1="-249.6779" y1="434.5017" x2="-209.7656" y2="394.5894" gradientTransform="matrix(1 0 0 -1 0 843.67)">
		<stop  offset="0" style="stop-color:#25B9DC"/>
		<stop  offset="1" style="stop-color:#0170B7"/>
	</linearGradient>
	<path class="st0" d="M-209.1,416.7h-3.3c-1.5-9.5-9.7-16.8-19.7-16.8c-10.1,0-18.5,7.5-19.8,17.2c-5.8,1.4-10.1,6.6-10.1,12.8
		c0,7.3,5.9,13.1,13.1,13.1h39.7c7.4,0,13.2-5.9,13.2-13.1C-196,422.6-201.8,416.7-209.1,416.7z"/>
	<path class="st1" d="M-207.3,442.8c0-0.4-0.2-0.8-0.4-1.2l-15.9-25.7c-1.5-2.4-3.7-3.8-6.1-3.8s-4.6,1.4-6.1,3.8l-15.8,25.8
		c-0.2,0.3-0.3,0.6-0.4,0.9c1,0.2,2,0.3,3.1,0.3h3l14.9-24.1c0.5-0.8,1-1.1,1.3-1.1s0.8,0.3,1.3,1.1l14.9,24.1h4.4
		C-208.5,442.9-207.9,442.9-207.3,442.8z"/>
	<path class="st1" d="M-252.3,442.5c1.1,0.3,2.3,0.4,3.5,0.4h3.1c6.3-8,15.4-11.3,25.4-11.3c7.8,0,15.1,2.6,20.9,7.1
		c1.2-1.2,2.3-3,2.8-4.6c-6.6-5-14.9-7.8-23.7-7.8C-233.3,426.3-245,432.4-252.3,442.5z"/>
</g>
</svg>
