<?xml version="1.0" encoding="utf-8"?>
<!-- Generator: Adobe Illustrator 17.0.0, SVG Export Plug-In . SVG Version: 6.00 Build 0)  -->
<!DOCTYPE svg PUBLIC "-//W3C//DTD SVG 1.1//EN" "http://www.w3.org/Graphics/SVG/1.1/DTD/svg11.dtd">
<svg version="1.1" xmlns="http://www.w3.org/2000/svg" xmlns:xlink="http://www.w3.org/1999/xlink" x="0px" y="0px" width="24px"
	 height="24px" viewBox="0 0 24 24" enable-background="new 0 0 24 24" xml:space="preserve">
<g id="view-icon">
	<path fill="none" stroke="#666666" stroke-miterlimit="10" d="M20.5,8.643c0,0.473-0.384,0.857-0.857,0.857h-4.286
		c-0.473,0-0.857-0.384-0.857-0.857V4.357c0-0.473,0.384-0.857,0.857-0.857h4.286c0.473,0,0.857,0.384,0.857,0.857V8.643z"/>
	<path fill="none" stroke="#666666" stroke-miterlimit="10" d="M20.5,18.643c0,0.473-0.384,0.857-0.857,0.857h-4.286
		c-0.473,0-0.857-0.384-0.857-0.857v-4.286c0-0.473,0.384-0.857,0.857-0.857h4.286c0.473,0,0.857,0.384,0.857,0.857V18.643z"/>
	<path fill="none" stroke="#666666" stroke-miterlimit="10" d="M10.5,18.643c0,0.473-0.384,0.857-0.857,0.857H5.357
		c-0.473,0-0.857-0.384-0.857-0.857v-4.286c0-0.473,0.384-0.857,0.857-0.857h4.286c0.473,0,0.857,0.384,0.857,0.857V18.643z"/>
	<path fill="none" stroke="#666666" stroke-miterlimit="10" d="M10.5,8.643c0,0.473-0.384,0.857-0.857,0.857H5.357
		C4.884,9.5,4.5,9.116,4.5,8.643V4.357C4.5,3.884,4.884,3.5,5.357,3.5h4.286c0.473,0,0.857,0.384,0.857,0.857V8.643z"/>
</g>
</svg>
