<?xml version="1.0" encoding="utf-8"?>
<!-- Generator: Adobe Illustrator 17.0.0, SVG Export Plug-In . SVG Version: 6.00 Build 0)  -->
<!DOCTYPE svg PUBLIC "-//W3C//DTD SVG 1.1//EN" "http://www.w3.org/Graphics/SVG/1.1/DTD/svg11.dtd">
<svg version="1.1" xmlns="http://www.w3.org/2000/svg" xmlns:xlink="http://www.w3.org/1999/xlink" x="0px" y="0px" width="28px"
	 height="28px" viewBox="0 0 28 28" enable-background="new 0 0 28 28" xml:space="preserve">
<g id="help">
	<circle fill="none" stroke="#FFFFFF" stroke-linecap="round" stroke-miterlimit="10" cx="14" cy="14.333" r="12"/>
	<g>
		<path fill="#FFFFFF" d="M9.806,10.91c0.028-0.862,0.138-1.538,0.329-2.026c0.191-0.487,0.512-0.934,0.965-1.337
			c0.453-0.402,0.958-0.7,1.517-0.891c0.559-0.191,1.135-0.286,1.729-0.286c1.259,0,2.288,0.357,3.087,1.071
			c0.799,0.714,1.199,1.673,1.199,2.875c0,0.608-0.121,1.132-0.361,1.57c-0.241,0.438-0.764,1.032-1.57,1.782
			c-0.877,0.834-1.415,1.45-1.613,1.846c-0.198,0.396-0.297,1.054-0.297,1.973h-1.464c0.028-0.834,0.162-1.538,0.403-2.11
			c0.24-0.573,0.767-1.276,1.581-2.111s1.323-1.425,1.528-1.771s0.308-0.781,0.308-1.306c0-0.792-0.258-1.428-0.774-1.909
			c-0.517-0.48-1.213-0.722-2.09-0.722c-1.896,0-2.928,1.118-3.098,3.353H9.806z"/>
	</g>
	<circle fill="#FFFFFF" cx="14" cy="20" r="1"/>
</g>
</svg>
