<svg id="Layer_1" data-name="Layer 1" xmlns="http://www.w3.org/2000/svg" width="22.82" height="15.28" viewBox="0 0 22.82 15.28">
    <defs>
        <style>
            .cls-1 {
                fill: #1fbbde;
            }
        </style>
    </defs>
    <title>Vector Smart Object1</title>
    <path class="cls-1" d="M296.19,278.29a6.81,6.81,0,0,0-6.63-5.45,6.73,6.73,0,0,0-4.69,1.9,3.74,3.74,0,0,0-1.15-.18,3.8,3.8,0,0,0-3.79,3.77,5.06,5.06,0,0,0,1.57,9.78h13.27a5.07,5.07,0,0,0,1.42-9.82Zm-8.09,7.23a3.83,3.83,0,0,1-3.82-3.83.5.5,0,0,1,.5-.5.51.51,0,0,1,.5.5,2.82,2.82,0,1,0,5.65,0,.5.5,0,0,1,.5-.5.51.51,0,0,1,.5.5A3.84,3.84,0,0,1,288.1,285.52Z"
        transform="translate(-276.69 -272.84)" />
</svg>