<svg xmlns="http://www.w3.org/2000/svg" viewBox="0 0 142 131"><title>cup</title><g id="图层_2" data-name="图层 2"><g id="图层_6" data-name="图层 6"><ellipse cx="71" cy="60" rx="58.88" ry="60" fill="#ffd15c" opacity="0.2"/><path d="M37.43,121.44A69.68,69.68,0,0,0,71,130" fill="none" stroke="#ffd15c" stroke-linecap="round" stroke-miterlimit="10" stroke-width="2" fill-rule="evenodd" opacity="0.5"/><path d="M17.94,14.34A70.11,70.11,0,0,0,3.34,78" fill="none" stroke="#ffd15c" stroke-linecap="round" stroke-miterlimit="10" stroke-width="2" fill-rule="evenodd" opacity="0.5"/><path d="M118.82,111.12A70,70,0,0,0,116.28,6.61" fill="none" stroke="#ffd15c" stroke-linecap="round" stroke-miterlimit="10" stroke-width="2" fill-rule="evenodd" opacity="0.5"/><g id="Forma_1" data-name="Forma 1"><path d="M44.59,22.15c-6.49.9-7.71.29-10.86-5.46.9,6.49.28,7.71-5.47,10.86,6.5-.9,7.72-.28,10.87,5.47C38.23,26.52,38.84,25.31,44.59,22.15Z" fill="#fff" fill-rule="evenodd"/></g><path d="M116.44,55c-2.68,3.4-3.54,3.66-7.67,2.37,3.4,2.68,3.67,3.54,2.37,7.67,2.68-3.4,3.54-3.66,7.67-2.37C115.41,60,115.15,59.12,116.44,55Z" fill="#fff"/><path d="M67.88,99.07c-2,1.92-2.53,2-5,.86,1.92,2,2,2.53.86,5,2-1.92,2.53-2,5-.85C66.82,102.13,66.72,101.56,67.88,99.07Z" fill="#fff"/><polygon points="76.83 80.55 65.17 80.55 67.16 76.3 68.88 72.33 73.12 72.33 74.84 76.3 76.83 80.55" fill="#ff7058"/><path d="M84.26,80.55H57.74a2.66,2.66,0,0,0-2.65,2.65v8.61H86.77V83.2A2.46,2.46,0,0,0,84.26,80.55Z" fill="#ffd15c"/><path d="M74.84,76.3a34.56,34.56,0,0,1-3.18,1.46l-.66.13-.66-.26a34.56,34.56,0,0,1-3.18-1.46l1.72-4H73Z" fill="#f1543f"/><path d="M39.19,35.48v5.43A32,32,0,0,0,58.94,70.34a31.62,31.62,0,0,0,24.12,0,32,32,0,0,0,19.75-29.43V35.48Zm58.32,5.43a26.21,26.21,0,0,1-6.1,16.84A26.66,26.66,0,0,1,71,67.42a26.25,26.25,0,0,1-20.41-9.67,26.73,26.73,0,0,1-6.1-16.84v-.13H97.38v.13Z" fill="#f8b64c"/><path d="M91.68,28.19H50.32a1.61,1.61,0,0,0-1.59,1.59,1.64,1.64,0,0,0,1.59,1.72H91.68a1.61,1.61,0,0,0,1.59-1.59A1.64,1.64,0,0,0,91.68,28.19Z" fill="#f8b64c"/><path d="M91.68,31.5V45.82A32.32,32.32,0,0,1,71,75.91,32.5,32.5,0,0,1,50.32,45.68V31.5Z" fill="#ffd15c"/><polygon points="71 37.47 73.78 45.95 82.67 45.95 75.51 51.25 78.16 59.73 71 54.43 63.84 59.73 66.49 51.25 59.34 45.95 68.22 45.95 71 37.47" fill="#fff"/><rect x="50.32" y="31.5" width="41.22" height="1.99" fill="#ffc952"/></g></g></svg>