<svg xmlns="http://www.w3.org/2000/svg" viewBox="0 0 256 256"><g><circle cx="128" cy="128" r="128" fill="#ddd"/><g><path d="M97.87 106.63a3 3 0 0 1-2 3.6 2.84 2.84 0 0 1-3.45-2 33.94 33.94 0 0 1-.89-13.62 34.63 34.63 0 0 1 4.09-12.91 33.21 33.21 0 0 1 8.52-10.29 30.84 30.84 0 0 1 11.67-6.21 2.72 2.72 0 0 1 3.45 2 2.88 2.88 0 0 1-2 3.6 31.76 31.76 0 0 0-9.71 5 33.44 33.44 0 0 0-7.1 8.57 31.06 31.06 0 0 0-3.46 10.55l-.14.26a37.59 37.59 0 0 0 .93 11.45zM185 101.31C185 69 159.47 42.8 128 42.8S71.09 69 71.09 101.31a59 59 0 0 0 21.76 46 80 80 0 0 0-41.2 56.92 7.61 7.61 0 0 0 7.43 9c2-26.94 18.8-50.79 42.26-60.27 7.45 3.68 17.86 6.88 26.69 6.88a55.33 55.33 0 0 0 24.6-5.8l5.84-3.52 4.73-3.23a58.93 58.93 0 0 0 21.77-46zm-56.94 49c-26.33 0-47.66-21.93-47.66-49s21.34-49 47.66-49 47.67 21.93 47.67 49-20.29 49-47.67 49zm48.17 5.57v.06a5 5 0 0 0-3.56-1.5c-2.86 0-5.18 1.13-5.18 4.11a5.35 5.35 0 0 0 2.77 4.69v.05c15.57 11.57 23.42 29.1 25 49.94a9.07 9.07 0 0 0 9-10.74 80.38 80.38 0 0 0-27.88-46.61zm0 0" fill="#fff"/></g></g></svg>