<svg id="Layer_2" data-name="Layer 2" xmlns="http://www.w3.org/2000/svg" xmlns:xlink="http://www.w3.org/1999/xlink"
    width="148.65" height="135.74" viewBox="0 0 148.65 135.74">
    <defs>
        <style>
            .cls-1 {
                fill: #c6e2f5;
            }

            .cls-2 {
                fill: none;
                stroke: #fff;
                stroke-linecap: round;
                stroke-miterlimit: 10;
                stroke-width: 2px;
                opacity: 0.6;
            }

            .cls-2,
            .cls-4 {
                isolation: isolate;
            }

            .cls-3 {
                fill: url(#linear-gradient);
            }

            .cls-4,
            .cls-5 {
                fill: #fff;
            }

            .cls-4 {
                opacity: 0.4;
            }
        </style>
        <linearGradient id="linear-gradient" x1="816.99" y1="189.31" x2="875.56" y2="189.31" gradientTransform="matrix(1, 0, 0, -1, 0, 562)"
            gradientUnits="userSpaceOnUse">
            <stop offset="0" stop-color="#c6e2f5" />
            <stop offset="1" stop-color="#c6e2f5" stop-opacity="0" />
        </linearGradient>
    </defs>
    <title>Vector Smart Object</title>
    <path class="cls-1" d="M804.13,420.08v54.29a11,11,0,0,1-10.86,11H739a11,11,0,0,1-10.86-11V409.23A10.86,10.86,0,0,1,739,398.37h43.43Z"
        transform="translate(-728.13 -349.63)" />
    <path class="cls-2" d="M799.13,421.37H788c-4,0-6.9-3.69-6.9-7.67V403.37" transform="translate(-728.13 -349.63)" />
    <path class="cls-3" d="M875.77,351.54c-11.86-4.54-25.6-.65-34.6,8-3.24,3.1-6.82,7.39-8.3,11.63-1.36,3.91,3.63,6.32,6.46,7.38,2.43.91,8.48,1,8.48-3,0-3.58-5.26-4.56-7.93-4.79-5.51-.46-11.31,3.58-15,7.16-4.42,4.25-7.23,10.13-8.82,16a1.5,1.5,0,0,0,2.89.8c2.07-7.6,6.28-14.43,13.11-18.57,3.55-2.15,7.89-3.09,11.75-1.35q-.62,2.14-2.59,1.16a12.4,12.4,0,0,1-2.82-1c-2.09-1-3.09-2.17-2-4.38,6.58-13.7,24.41-21.5,38.61-16.07,1.81.69,2.59-2.21.8-2.89Z"
        transform="translate(-728.13 -349.63)" />
    <path class="cls-1" d="M809.68,381.93c1.25,5.24,3.36,10.23,4.5,15.5a1.48,1.48,0,0,0,1.45,1.1c5.7-.43,11.27-1.63,16.9-2.55,1.9-.31,1.09-3.2-.8-2.89-5.36.87-10.67,2-16.1,2.44l1.45,1.1c-1.14-5.27-3.25-10.26-4.5-15.5-.45-1.88-3.34-1.08-2.89.8Z"
        transform="translate(-728.13 -349.63)" />
    <path class="cls-4" d="M782.63,440.15h-5.5a3.68,3.68,0,0,1-3.67-3.67V431" transform="translate(-728.13 -349.63)" />
    <path class="cls-5" d="M775.3,427.31H751.46a5.5,5.5,0,0,0-5.5,5.5v33a5.5,5.5,0,0,0,5.5,5.5H780.8a5.5,5.5,0,0,0,5.5-5.5v-27.5Zm-12.83,9.17h1.83a1.83,1.83,0,1,1,0,3.67h-1.83a1.83,1.83,0,1,1,0-3.67Zm-7.33,0H757a1.83,1.83,0,1,1,0,3.67h-1.83a1.83,1.83,0,0,1,0-3.67Zm22,25.67h-22a1.83,1.83,0,0,1,0-3.67h22a1.83,1.83,0,1,1,0,3.67Zm0-9.17h-22a1.83,1.83,0,0,1,0-3.67h22a1.83,1.83,0,1,1,0,3.67Zm0-12.83a3.68,3.68,0,0,1-3.67-3.67v-7.33l11,11Z"
        transform="translate(-728.13 -349.63)" />
</svg>