<?xml version="1.0" encoding="utf-8"?>
<!-- Generator: Adobe Illustrator 17.0.0, SVG Export Plug-In . SVG Version: 6.00 Build 0)  -->
<!DOCTYPE svg PUBLIC "-//W3C//DTD SVG 1.1//EN" "http://www.w3.org/Graphics/SVG/1.1/DTD/svg11.dtd">
<svg version="1.1" id="图层_1" xmlns="http://www.w3.org/2000/svg" xmlns:xlink="http://www.w3.org/1999/xlink" x="0px" y="0px"
	 width="22px" height="22px" viewBox="0 0 22 22" enable-background="new 0 0 22 22" xml:space="preserve">
<g>
	<g opacity="0.3">
		<path fill="#333333" d="M17.805,15.751c-0.769-0.602-1.01-1.561-0.725-2.238c0.3-0.669,1.187-1.124,2.155-0.956
			c0.948,0.16,1.551,1.274,1.061,2.389C19.806,16.063,18.563,16.352,17.805,15.751z"/>
	</g>
	<g opacity="0.4">
		<path fill="#333333" d="M13.601,18.813c-0.268-0.943,0.091-1.871,0.724-2.243c0.645-0.355,1.625-0.213,2.303,0.488
			c0.677,0.693,0.518,1.957-0.54,2.56C15.033,20.224,13.861,19.741,13.601,18.813z"/>
	</g>
	<g opacity="0.5">
		<path fill="#333333" d="M8.398,18.813c0.333-0.91,1.174-1.47,1.903-1.383c0.735,0.067,1.442,0.779,1.579,1.751
			c0.137,0.952-0.733,1.86-1.942,1.751C8.729,20.787,8.06,19.727,8.398,18.813z"/>
	</g>
	<g opacity="0.6">
		<path fill="#333333" d="M4.194,15.751c0.394-0.284,0.863-0.393,1.269-0.379c0.438-0.007,0.79,0.133,1.087,0.378
			c0.539,0.503,0.7,1.483,0.243,2.344c-0.241,0.422-0.639,0.696-1.13,0.769c-0.468,0.05-1.045-0.087-1.47-0.498
			c-0.451-0.383-0.647-0.94-0.65-1.408C3.567,16.46,3.8,16.035,4.194,15.751z"/>
	</g>
	<g opacity="0.7">
		<path fill="#333333" d="M2.579,10.806c0.985,0.035,1.76,0.667,1.907,1.386c0.093,0.371-0.011,0.758-0.201,1.122
			c-0.214,0.368-0.534,0.716-0.974,0.915c-0.446,0.201-0.94,0.195-1.358-0.043c-0.439-0.226-0.775-0.689-0.911-1.265
			C0.803,11.727,1.622,10.768,2.579,10.806z"/>
	</g>
	<g opacity="0.8">
		<path fill="#333333" d="M4.194,5.862C4.963,6.464,5.204,7.422,4.919,8.1c-0.3,0.669-1.187,1.124-2.155,0.956
			c-0.948-0.16-1.551-1.274-1.061-2.389C2.193,5.55,3.436,5.261,4.194,5.862z"/>
	</g>
	<g opacity="0.9">
		<path fill="#333333" d="M8.398,2.8C8.666,3.742,8.307,4.67,7.674,5.043C7.029,5.398,6.049,5.256,5.371,4.555
			c-0.677-0.692-0.518-1.957,0.54-2.56C6.966,1.388,8.138,1.872,8.398,2.8z"/>
	</g>
	<g>
		<path fill="#333333" d="M13.601,2.8c-0.333,0.91-1.174,1.47-1.903,1.383c-0.735-0.067-1.442-0.779-1.579-1.751
			c-0.137-0.952,0.733-1.86,1.942-1.751C13.27,0.825,13.939,1.886,13.601,2.8z"/>
	</g>
	<g opacity="0.1">
		<path fill="#333333" d="M17.805,5.862c-0.394,0.284-0.863,0.393-1.269,0.379c-0.438,0.007-0.79-0.133-1.087-0.378
			c-0.539-0.503-0.7-1.483-0.243-2.344c0.241-0.422,0.639-0.696,1.13-0.769c0.468-0.05,1.045,0.087,1.47,0.497
			c0.451,0.383,0.647,0.94,0.65,1.408C18.433,5.152,18.199,5.578,17.805,5.862z"/>
	</g>
	<g opacity="0.2">
		<path fill="#333333" d="M19.42,10.806c-0.985-0.035-1.76-0.667-1.907-1.386c-0.093-0.371,0.011-0.758,0.201-1.122
			c0.214-0.368,0.534-0.716,0.974-0.915c0.446-0.201,0.94-0.195,1.358,0.043c0.439,0.226,0.775,0.689,0.911,1.265
			C21.197,9.886,20.377,10.844,19.42,10.806z"/>
	</g>
</g>
</svg>
