<?xml version="1.0" encoding="utf-8"?>
<!-- Generator: Adobe Illustrator 17.0.0, SVG Export Plug-In . SVG Version: 6.00 Build 0)  -->
<!DOCTYPE svg PUBLIC "-//W3C//DTD SVG 1.1//EN" "http://www.w3.org/Graphics/SVG/1.1/DTD/svg11.dtd">
<svg version="1.1" id="图层_1" xmlns="http://www.w3.org/2000/svg" xmlns:xlink="http://www.w3.org/1999/xlink" x="0px" y="0px"
	 width="20px" height="20px" viewBox="0 0 20 20" enable-background="new 0 0 20 20" xml:space="preserve">
<path fill="none" stroke="#666666" stroke-miterlimit="10" d="M3.063,2.582c-2.575,2.75-1.983,5.687,0.4,8.498
	c0.661,0.938,1.545,1.984,2.585,3.023c1.061,1.062,2.129,1.961,3.082,2.626c2.802,2.272,5.668,2.838,8.379,0.299l0.416-0.407
	c0.575-0.575,0.632-1.564,0.058-2.139l-1.924-1.924c-0.575-0.575-1.411-0.286-1.986,0.289L13.72,13.2l-0.27,0.27
	c-0.452,0.452-1.145,0.376-1.597-0.076l-1.795-1.794l-1.567-1.567L6.698,8.237c-0.452-0.452-0.342-0.959,0.11-1.411l0.269-0.269
	L7.43,6.204c0.575-0.575,0.678-1.596,0.104-2.171L5.609,2.109C5.034,1.534,4.045,1.592,3.47,2.166L3.063,2.582z"/>
<polyline fill="none" stroke="#666666" stroke-linecap="round" stroke-linejoin="round" stroke-miterlimit="10" points="12,6.5 
	18.017,6.5 16.284,4.374 "/>
<line fill="none" stroke="#666666" stroke-width="0.8" stroke-miterlimit="10" x1="17.585" y1="16.936" x2="13.777" y2="13.127"/>
<line fill="none" stroke="#666666" stroke-width="0.8" stroke-miterlimit="10" x1="7.025" y1="6.462" x2="2.776" y2="2.203"/>
<polyline fill="none" stroke="#666666" stroke-linecap="round" stroke-linejoin="round" stroke-miterlimit="10" points="12,6.5 
	18.017,6.5 16.284,8.626 "/>
</svg>
