<?xml version="1.0" encoding="utf-8"?>
<!-- Generator: Adobe Illustrator 19.0.0, SVG Export Plug-In . SVG Version: 6.00 Build 0)  -->
<svg version="1.1" id="图层_1" xmlns="http://www.w3.org/2000/svg" xmlns:xlink="http://www.w3.org/1999/xlink" x="0px" y="0px"
	 width="40px" height="40px" viewBox="-277 400.9 40 40" style="enable-background:new -277 400.9 40 40;" xml:space="preserve">
<style type="text/css">
	.st0{fill:#FFFFFF;}
</style>
<path class="st0" d="M-245,423.2c-0.1-4.4-3.1-6.4-7.4-6.7c-1.3-0.2-2.9-0.4-4.7-0.4c-1.8,0-3.4,0.1-4.7,0.4
	c-4.2,0.4-7.1,2.4-7.2,6.7l0,0.7c0,1,0.8,1.8,1.7,1.8h3.2c1,0,1.4-0.9,1.4-1.9l0-0.6l0-0.4c0-0.8,0.6-1.3,1.4-1.3l3,0h2.6l3,0
	c0.8,0,1.1,0.5,1.1,1.3v0.4v0.6c0,1,0.8,1.9,1.7,1.9h3.2c1,0,1.7-0.9,1.7-1.8L-245,423.2z"/>
</svg>
