<?xml version="1.0" encoding="utf-8"?>
<!-- Generator: Adobe Illustrator 16.0.0, SVG Export Plug-In . SVG Version: 6.00 Build 0)  -->
<!DOCTYPE svg PUBLIC "-//W3C//DTD SVG 1.1//EN" "http://www.w3.org/Graphics/SVG/1.1/DTD/svg11.dtd">
<svg version="1.1" id="图层_1" xmlns="http://www.w3.org/2000/svg" xmlns:xlink="http://www.w3.org/1999/xlink" x="0px" y="0px"
	 width="28px" height="28px" viewBox="0 0 28 28" enable-background="new 0 0 28 28" xml:space="preserve">
<g>
	<path fill="#FFFFFF" d="M15.35,24.344C14.841,24.75,14.202,25,13.5,25c-1.302,0-2.401-0.838-2.815-2h4.105
		c-0.097-0.326-0.163-0.66-0.211-1H10.5h-1H3l2.25-3H5.5v-6c0-4.411,3.589-8,8-8s8,3.589,8,8v1c0.338,0,0.671,0.032,1,0.079V13
		c0-4.406-3.186-8.076-7.373-8.845C15.359,3.828,15.5,3.431,15.5,3c0-1.103-0.896-2-2-2c-1.103,0-2,0.897-2,2
		c0,0.431,0.141,0.828,0.373,1.155C7.686,4.924,4.5,8.594,4.5,13v5.333L1,23h8.642c0.447,1.721,2,3,3.858,3
		c0.903,0,1.73-0.307,2.398-0.814C15.695,24.916,15.51,24.637,15.35,24.344z M13.5,2c0.552,0,1,0.449,1,1s-0.448,1-1,1s-1-0.449-1-1
		S12.948,2,13.5,2z"/>
	<g>
		<path fill="#FFFFFF" d="M21.5,27c-1.604,0-3.109-0.624-4.242-1.758C16.124,24.109,15.5,22.604,15.5,21s0.624-3.109,1.758-4.242
			C18.391,15.624,19.896,15,21.5,15s3.109,0.624,4.242,1.758C26.876,17.891,27.5,19.396,27.5,21s-0.624,3.109-1.758,4.242
			C24.609,26.376,23.104,27,21.5,27z M21.5,16c-1.336,0-2.591,0.52-3.535,1.465C17.021,18.408,16.5,19.664,16.5,21
			s0.521,2.592,1.465,3.535C18.909,25.48,20.164,26,21.5,26s2.591-0.52,3.535-1.465C25.979,23.592,26.5,22.336,26.5,21
			s-0.521-2.592-1.465-3.535C24.091,16.52,22.836,16,21.5,16z"/>
		<g>
			
				<rect x="21" y="15.001" transform="matrix(-0.7071 -0.7071 0.7071 -0.7071 21.8536 51.052)" fill="#FFFFFF" width="1" height="11.999"/>
		</g>
	</g>
</g>
</svg>
