<?xml version="1.0" encoding="utf-8"?>
<!-- Generator: Adobe Illustrator 16.0.0, SVG Export Plug-In . SVG Version: 6.00 Build 0)  -->
<!DOCTYPE svg PUBLIC "-//W3C//DTD SVG 1.1//EN" "http://www.w3.org/Graphics/SVG/1.1/DTD/svg11.dtd">
<svg version="1.1" id="图层_1" xmlns="http://www.w3.org/2000/svg" xmlns:xlink="http://www.w3.org/1999/xlink" x="0px" y="0px"
	 width="80px" height="80px" viewBox="0 0 80 80" style="enable-background:new 0 0 80 80;" xml:space="preserve">
<style type="text/css">
<![CDATA[
	.st0{fill:#51B341;}
	.st1{fill:#FFFFFF;}
]]>
</style>
<g>
	<path class="st0" d="M80,40c0,22.091-17.909,40-40,40S0,62.091,0,40C0,17.909,17.909,0,40,0S80,17.909,80,40"/>
	<path class="st1" d="M19.646,19.897h39.748v4.373H19.646V19.897z M55.94,45.925V28.831H23.102v17.094H55.94z M27.865,33.201h23.362
		v8.357H27.865V33.201z M48.837,55.778c1.429-2.136,2.776-4.614,4.026-7.425l-4.776-1.701c-1.242,3.332-2.689,6.379-4.335,9.126
		h-8.313c-1.379-3.56-2.933-6.605-4.678-9.126l-4.393,1.701c1.812,2.654,3.271,5.126,4.393,7.425H18.521v4.325h42v-4.325H48.837z"/>
</g>
</svg>
