<?xml version="1.0" encoding="utf-8"?>
<!-- Generator: Adobe Illustrator 16.0.0, SVG Export Plug-In . SVG Version: 6.00 Build 0)  -->
<!DOCTYPE svg PUBLIC "-//W3C//DTD SVG 1.1//EN" "http://www.w3.org/Graphics/SVG/1.1/DTD/svg11.dtd">
<svg version="1.1" id="图层_1" xmlns="http://www.w3.org/2000/svg" xmlns:xlink="http://www.w3.org/1999/xlink" x="0px" y="0px"
	 width="46px" height="46px" viewBox="0 0 46 46" style="enable-background:new 0 0 46 46;" xml:space="preserve">
<style type="text/css">
<![CDATA[
	.st0{clip-path:url(#SVGID_2_);fill-rule:evenodd;clip-rule:evenodd;fill:#305892;}
	.st1{clip-path:url(#SVGID_2_);fill:#FFFFFF;}
]]>
</style>
<g>
	<defs>
		<rect id="SVGID_1_" width="46" height="46"/>
	</defs>
	<clipPath id="SVGID_2_">
		<use xlink:href="#SVGID_1_"  style="overflow:visible;"/>
	</clipPath>
	<path class="st0" d="M46,23c0,12.703-10.297,23-23,23S0,35.703,0,23S10.297,0,23,0S46,10.297,46,23"/>
	<path class="st1" d="M28.5,19.858h-3.957v-1.964c0,0-0.222-1.867,1.061-1.867h2.607V12h-4.438c0,0-3.714-0.016-3.714,3.781
		c0,0.816-0.004,2.301-0.009,4.077H17.5V23.1h2.542C20.027,28.255,20.01,34,20.01,34h4.533V23.1h2.992L28.5,19.858z"/>
</g>
</svg>
