<?xml version="1.0" encoding="utf-8"?>
<!-- Generator: Adobe Illustrator 16.0.0, SVG Export Plug-In . SVG Version: 6.00 Build 0)  -->
<!DOCTYPE svg PUBLIC "-//W3C//DTD SVG 1.1//EN" "http://www.w3.org/Graphics/SVG/1.1/DTD/svg11.dtd">
<svg version="1.1" id="图层_1" xmlns="http://www.w3.org/2000/svg" xmlns:xlink="http://www.w3.org/1999/xlink" x="0px" y="0px"
	 width="46px" height="46px" viewBox="0 0 46 46" style="enable-background:new 0 0 46 46;" xml:space="preserve">
<style type="text/css">
<![CDATA[
	.st0{clip-path:url(#SVGID_2_);fill-rule:evenodd;clip-rule:evenodd;fill:#CE4D39;}
	.st1{clip-path:url(#SVGID_2_);fill:#FFFFFF;}
]]>
</style>
<g>
	<defs>
		<rect id="SVGID_1_" width="46" height="46"/>
	</defs>
	<clipPath id="SVGID_2_">
		<use xlink:href="#SVGID_1_"  style="overflow:visible;"/>
	</clipPath>
	<path class="st0" d="M46,23c0,12.703-10.297,23-23,23S0,35.703,0,23S10.297,0,23,0S46,10.297,46,23"/>
	<path class="st1" d="M27.969,21.463h-8.054v2.45h5.712c-0.282,3.437-3.07,4.901-5.702,4.901c-3.367,0-6.305-2.716-6.305-6.523
		c0-3.708,2.801-6.564,6.312-6.564c2.71,0,4.306,1.77,4.306,1.77l1.674-1.776c0,0-2.148-2.451-6.065-2.451
		c-4.988,0-8.847,4.316-8.847,8.977c0,4.568,3.63,9.023,8.974,9.023c4.7,0,8.141-3.301,8.141-8.183
		C28.115,22.059,27.969,21.462,27.969,21.463L27.969,21.463z"/>
	<rect x="29.688" y="21.275" class="st1" width="7.312" height="2.083"/>
	<rect x="32.284" y="18.392" class="st1" width="2.03" height="7.497"/>
</g>
</svg>
