<?xml version="1.0" encoding="utf-8"?>
<!-- Generator: Adobe Illustrator 16.0.0, SVG Export Plug-In . SVG Version: 6.00 Build 0)  -->
<!DOCTYPE svg PUBLIC "-//W3C//DTD SVG 1.1//EN" "http://www.w3.org/Graphics/SVG/1.1/DTD/svg11.dtd">
<svg version="1.1" id="图层_1" xmlns="http://www.w3.org/2000/svg" xmlns:xlink="http://www.w3.org/1999/xlink" x="0px" y="0px"
	 width="46px" height="46px" viewBox="0 0 46 46" style="enable-background:new 0 0 46 46;" xml:space="preserve">
<style type="text/css">
<![CDATA[
	.st0{clip-path:url(#SVGID_2_);fill-rule:evenodd;clip-rule:evenodd;fill:#2BA8D2;}
	.st1{clip-path:url(#SVGID_2_);fill:#FFFFFF;}
]]>
</style>
<g>
	<defs>
		<rect id="SVGID_1_" width="46" height="46"/>
	</defs>
	<clipPath id="SVGID_2_">
		<use xlink:href="#SVGID_1_"  style="overflow:visible;"/>
	</clipPath>
	<path class="st0" d="M46,23c0,12.703-10.297,23-23,23S0,35.703,0,23S10.297,0,23,0S46,10.297,46,23"/>
	<path class="st1" d="M32.762,19.926c0-0.208-0.004-0.414-0.013-0.617c0.882-0.663,1.647-1.492,2.253-2.44
		c-0.81,0.366-1.679,0.611-2.593,0.714c0.932-0.578,1.647-1.502,1.986-2.612c-0.873,0.533-1.84,0.915-2.866,1.114
		c-0.823-0.944-1.997-1.544-3.295-1.567c-2.493-0.041-4.514,2.081-4.514,4.74c0,0.378,0.039,0.745,0.117,1.098
		c-3.754-0.243-7.08-2.211-9.306-5.179c-0.388,0.711-0.611,1.542-0.611,2.433c0,1.684,0.797,3.18,2.008,4.064
		c-0.741-0.034-1.436-0.26-2.045-0.631v0.062c0,2.354,1.557,4.327,3.622,4.787c-0.379,0.108-0.778,0.165-1.189,0.163
		c-0.291-0.003-0.574-0.034-0.849-0.095c0.574,1.931,2.242,3.338,4.217,3.385c-1.546,1.291-3.492,2.063-5.606,2.058
		c-0.364,0-0.724-0.025-1.077-0.07c1.998,1.381,4.37,2.187,6.92,2.187C28.223,33.521,32.762,26.241,32.762,19.926"/>
</g>
</svg>
