<?xml version="1.0" encoding="utf-8"?>
<!-- Generator: Adobe Illustrator 16.0.0, SVG Export Plug-In . SVG Version: 6.00 Build 0)  -->
<!DOCTYPE svg PUBLIC "-//W3C//DTD SVG 1.1//EN" "http://www.w3.org/Graphics/SVG/1.1/DTD/svg11.dtd">
<svg version="1.1" id="图层_1" xmlns="http://www.w3.org/2000/svg" xmlns:xlink="http://www.w3.org/1999/xlink" x="0px" y="0px"
	 width="80px" height="80px" viewBox="0 0 80 80" style="enable-background:new 0 0 80 80;" xml:space="preserve">
<style type="text/css">
<![CDATA[
	.st0{fill:#E24530;}
	.st1{fill:#FFFFFF;}
]]>
</style>
<g>
	<path class="st0" d="M80,40c0,22.091-17.909,40-40,40C17.909,80,0,62.091,0,40C0,17.909,17.909,0,40,0C62.091,0,80,17.909,80,40"/>
	<path class="st1" d="M50.826,39.524c-1.75-0.339-0.898-1.28-0.898-1.28s1.712-2.825-0.339-4.877
		c-2.544-2.543-8.723,0.324-8.723,0.324c-2.36,0.733-1.734-0.336-1.399-2.149c0-2.139-0.734-5.758-7.02-3.619
		c-6.28,2.148-11.674,9.678-11.674,9.678c-3.749,5.004-3.251,8.871-3.251,8.871C18.458,55.01,27.53,57.355,34.586,57.91
		c7.423,0.581,17.443-2.559,20.479-9.013C58.104,42.433,52.583,39.875,50.826,39.524 M35.136,55.503
		c-7.371,0.343-13.328-3.353-13.328-8.269c0-4.925,5.957-8.872,13.328-9.212c7.373-0.341,13.342,2.699,13.342,7.611
		C48.478,50.55,42.509,55.166,35.136,55.503"/>
	<path class="st1" d="M33.665,41.265c-7.411,0.867-6.555,7.81-6.555,7.81s-0.076,2.199,1.987,3.318
		c4.337,2.348,8.802,0.927,11.059-1.987C42.412,47.492,41.088,40.403,33.665,41.265 M31.794,51.009
		c-1.382,0.163-2.498-0.636-2.498-1.793c0-1.154,0.99-2.36,2.375-2.504c1.59-0.152,2.625,0.763,2.625,1.922
		C34.296,49.786,33.174,50.851,31.794,51.009 M36.165,47.288c-0.469,0.349-1.045,0.301-1.292-0.119
		c-0.259-0.41-0.161-1.068,0.312-1.412c0.549-0.409,1.12-0.29,1.368,0.119C36.801,46.294,36.623,46.926,36.165,47.288"/>
	<path class="st1" d="M54.437,36.519c0.596,0,1.106-0.442,1.19-1.019c0.01-0.043,0.016-0.082,0.016-0.13
		c0.905-8.137-6.669-6.738-6.669-6.738c-0.673,0-1.211,0.545-1.211,1.224c0,0.667,0.538,1.21,1.211,1.21
		c5.441-1.199,4.24,4.24,4.24,4.24C53.214,35.98,53.761,36.519,54.437,36.519"/>
	<path class="st1" d="M53.554,22.313c-2.62-0.614-5.312-0.085-6.067,0.061c-0.058,0.005-0.114,0.058-0.167,0.069
		c-0.025,0.006-0.041,0.032-0.041,0.032c-0.746,0.211-1.289,0.9-1.289,1.714c0,0.969,0.785,1.767,1.767,1.767
		c0,0,0.952-0.128,1.6-0.38c0.641-0.259,6.064-0.193,8.759,4.332c1.469,3.302,0.646,5.511,0.543,5.867c0,0-0.35,0.857-0.35,1.703
		c0,0.974,0.786,1.586,1.759,1.586c0.815,0,1.499-0.109,1.699-1.487h0.011C64.672,27.936,58.24,23.405,53.554,22.313"/>
</g>
</svg>
