<?xml version="1.0" encoding="utf-8"?>
<!-- Generator: Adobe Illustrator 19.0.0, SVG Export Plug-In . SVG Version: 6.00 Build 0)  -->
<svg version="1.1" id="图层_1" xmlns="http://www.w3.org/2000/svg" xmlns:xlink="http://www.w3.org/1999/xlink" x="0px" y="0px"
	 viewBox="10 -10 80 80" style="enable-background:new 10 -10 80 80;" xml:space="preserve">
<style type="text/css">
	.st0{fill:#0AC516;}
	.st1{fill:#FFFFFF;}
</style>
<g>
	<path class="st0" d="M90,30c0,22.1-17.9,40-40,40S10,52.1,10,30c0-22.1,17.9-40,40-40S90,7.9,90,30"/>
</g>
<path class="st1" d="M77.2,36.3c0-7.5-7.4-13.6-16.6-13.6s-16.5,6.1-16.5,13.6s7.4,13.6,16.6,13.6c2.1,0,4.1-0.3,6-0.9l5.1,2.8
	l-1.4-4.5l0,0C74.6,45,77.1,40.8,77.2,36.3z M54.7,33.6c-1.2,0-2.3-1-2.3-2.2c0-1.2,1.1-2.2,2.3-2.2c1.2,0,2.3,1,2.3,2.2l0,0
	C56.8,32.7,55.9,33.6,54.7,33.6z M65.9,33.6c-1.2,0-2.3-1-2.3-2.2c0-1.2,1.1-2.2,2.3-2.2s2.3,1,2.3,2.2
	C68.1,32.7,67.1,33.6,65.9,33.6L65.9,33.6z M60,22.1h0.8c-1.1-7.8-9.1-13.9-18.9-13.9c-10.6,0-19,7-19,15.7c0.2,5.2,3,10,7.7,12.6
	l0,0L29,41.7l6-3.3c2.3,0.7,4.5,1,7,1c0.8,0,1.5,0,2.3-0.1c-0.5-1.2-0.6-2.4-0.6-3.7C43.5,28.1,50.9,22.1,60,22.1L60,22.1z
	 M48.8,15.6c1.4,0,2.6,1.2,2.6,2.5c0,1.3-1.2,2.5-2.6,2.5s-2.6-1.2-2.6-2.5C46.2,16.8,47.4,15.6,48.8,15.6L48.8,15.6z M35.8,20.7
	c-1.4,0-2.6-1.2-2.6-2.5c0-1.3,1.2-2.5,2.6-2.5c1.4,0,2.6,1.2,2.6,2.5C38.5,19.7,37.3,20.7,35.8,20.7C35.9,20.9,35.9,20.9,35.8,20.7
	L35.8,20.7z"/>
</svg>
