<?xml version="1.0" encoding="utf-8"?>
<!-- Generator: Adobe Illustrator 21.0.0, SVG Export Plug-In . SVG Version: 6.00 Build 0)  -->
<svg version="1.1" id="图层_1" xmlns="http://www.w3.org/2000/svg" xmlns:xlink="http://www.w3.org/1999/xlink" x="0px" y="0px"
	 width="20px" height="23px" viewBox="0 0 20 23" style="enable-background:new 0 0 20 23;" xml:space="preserve">
<style type="text/css">
	.st0{fill:none;stroke:#797979;}
	.st1{fill:none;stroke:#666666;}
</style>
<title>icn-add clipboard</title>
<desc>Created with Sketch.</desc>
<g id="web-剪贴板-1-copy" transform="translate(-400.000000, -73.000000)">
	<g id="icn-add-clipboard" transform="translate(400.000000, 73.000000)">
		<path id="Stroke-1" class="st0" d="M7.8,19.8H1.6c-0.6,0-1.1-0.5-1.1-1.1V5.1C0.5,4.5,1,4,1.6,4H3"/>
		<path id="Stroke-3" class="st0" d="M12.3,4h1.1c0.6,0,1.1,0.5,1.1,1.1v4.6"/>
		<path id="Stroke-5" class="st0" d="M9.1,2.6V2.3c0-0.9-0.7-1.6-1.6-1.6S5.9,1.4,5.9,2.3v0.3H4.6c-1.1,0-1.9,0.9-1.9,1.9v0.6h9.5
			V4.5c0-1.1-0.9-1.9-1.9-1.9H9.1z"/>
		<path id="Stroke-7" class="st1" d="M9,17.3h11"/>
		<path id="Stroke-9" class="st1" d="M14.5,11.8v11"/>
	</g>
</g>
</svg>
