<?xml version="1.0" encoding="utf-8"?>
<!-- Generator: Adobe Illustrator 17.0.0, SVG Export Plug-In . SVG Version: 6.00 Build 0)  -->
<!DOCTYPE svg PUBLIC "-//W3C//DTD SVG 1.1//EN" "http://www.w3.org/Graphics/SVG/1.1/DTD/svg11.dtd">
<svg version="1.1" id="图层_1" xmlns="http://www.w3.org/2000/svg" xmlns:xlink="http://www.w3.org/1999/xlink" x="0px" y="0px"
	 width="150px" height="150px" viewBox="0 0 150 150" enable-background="new 0 0 150 150" xml:space="preserve">
<path fill="#C6E2F5" d="M77,75.714V130c0,5.997-4.862,11-10.857,11H11.857C5.861,141,1,135.997,1,130V64.857
	C1,58.86,5.861,54,11.857,54h43.429L77,75.714z"/>
<g opacity="0.6">
	<path fill="none" stroke="#FFFFFF" stroke-width="2" stroke-linecap="round" stroke-miterlimit="10" d="M72,77H60.905
		C56.924,77,54,73.309,54,69.328V59"/>
</g>
<g>
	<g>
		<linearGradient id="SVGID_1_" gradientUnits="userSpaceOnUse" x1="89.8626" y1="28.1318" x2="148.43" y2="28.1318">
			<stop  offset="0" style="stop-color:#C6E2F5"/>
			<stop  offset="1" style="stop-color:#C6E2F5;stop-opacity:0"/>
		</linearGradient>
		<path fill="url(#SVGID_1_)" d="M148.636,7.173c-11.864-4.536-25.602-0.647-34.601,7.961c-3.239,3.099-6.818,7.385-8.295,11.633
			c-1.361,3.914,3.631,6.318,6.465,7.376c2.426,0.906,8.479,0.965,8.479-2.98c0-3.577-5.263-4.564-7.93-4.788
			c-5.506-0.462-11.308,3.578-15.037,7.164c-4.423,4.253-7.228,10.131-8.817,15.976c-0.508,1.87,2.386,2.662,2.893,0.798
			c2.065-7.598,6.278-14.432,13.115-18.568c3.549-2.147,7.889-3.09,11.753-1.355c-0.411,1.424-1.273,1.812-2.587,1.162
			c-0.979-0.231-1.919-0.575-2.819-1.035c-2.094-0.977-3.094-2.171-2.031-4.383c6.582-13.7,24.409-21.501,38.613-16.07
			C149.649,10.758,150.424,7.857,148.636,7.173L148.636,7.173z"/>
	</g>
</g>
<g>
	<g>
		<path fill="#C6E2F5" d="M82.554,37.565c1.251,5.244,3.36,10.228,4.5,15.5c0.132,0.611,0.815,1.149,1.446,1.101
			c5.697-0.434,11.269-1.635,16.899-2.554c1.906-0.311,1.094-3.201-0.798-2.893c-5.363,0.875-10.673,2.033-16.101,2.446
			c0.482,0.367,0.964,0.734,1.446,1.101c-1.14-5.272-3.249-10.256-4.5-15.5C84.997,34.887,82.105,35.685,82.554,37.565
			L82.554,37.565z"/>
	</g>
</g>
</svg>
