<?xml version="1.0" encoding="utf-8"?>
<!-- Generator: Adobe Illustrator 19.0.0, SVG Export Plug-In . SVG Version: 6.00 Build 0)  -->
<svg version="1.1" id="图层_1" xmlns="http://www.w3.org/2000/svg" xmlns:xlink="http://www.w3.org/1999/xlink" x="0px" y="0px"
	 width="28px" height="23.9px" viewBox="0 0 28 23.9" style="enable-background:new 0 0 28 23.9;" xml:space="preserve">
<style type="text/css">
	.st0{fill:#1fbbde;}
</style>
<g>
	<g>
		<path class="st0" d="M26.9,11.7c-0.2,0-0.4-0.1-0.6-0.2L14.5,2h-1.2L1.6,11.2c-0.4,0.3-1.1,0.3-1.4-0.2c-0.3-0.4-0.3-1.1,0.2-1.4
			l12-9.4C12.6,0.1,12.8,0,13,0h1.9c0.2,0,0.4,0.1,0.6,0.2l12.1,9.7c0.4,0.3,0.5,1,0.2,1.4C27.5,11.5,27.2,11.7,26.9,11.7z"/>
	</g>
	<g>
		<path class="st0" d="M23.1,23.9H5.3c-2.1,0-2.7-2-2.8-3.1V8.2h2v12.5l0,0c0,0,0.1,1.2,0.8,1.2h17.8c0.1,0,0.1-0.3,0.1-0.7V8.3h2
			v12.9C25.3,23.2,24,23.9,23.1,23.9z"/>
	</g>
	<g>
		<path class="st0" d="M11.5,23.6c-0.6,0-1-0.4-1-1v-5.1c0-0.6,0.4-1.9,1.8-2.3c0.1,0,0.2,0,0.2,0h2.8c0.1,0,0.8-0.1,1.5,0.5
			c0.3,0.3,0.8,0.9,0.8,2v4.7c0,0.6-0.4,1-1,1s-1-0.4-1-1v-4.7c0-0.3-0.1-0.5-0.1-0.5s-0.1,0-0.2,0h-2.6c-0.1,0-0.2,0.1-0.2,0.3v5.1
			C12.5,23.2,12.1,23.6,11.5,23.6z"/>
	</g>
</g>
</svg>
