<?xml version="1.0" encoding="utf-8"?>
<!-- Generator: Adobe Illustrator 17.0.0, SVG Export Plug-In . SVG Version: 6.00 Build 0)  -->
<!DOCTYPE svg PUBLIC "-//W3C//DTD SVG 1.1//EN" "http://www.w3.org/Graphics/SVG/1.1/DTD/svg11.dtd">
<svg version="1.1" id="图层_1" xmlns="http://www.w3.org/2000/svg" xmlns:xlink="http://www.w3.org/1999/xlink" x="0px" y="0px"
	 width="24px" height="24px" viewBox="0 0 24 24" enable-background="new 0 0 24 24" xml:space="preserve">
<g>
	<defs>
		<polygon id="SVGID_1_" points="11.926,12 11.75,21 0,21 0,2 24,2 24,13"/>
	</defs>
	<clipPath id="SVGID_2_">
		<use xlink:href="#SVGID_1_"  overflow="visible"/>
	</clipPath>
	<path clip-path="url(#SVGID_2_)" fill="none" stroke="#FFFFFF" stroke-miterlimit="10" d="M20.5,18.5c0,1.104-0.896,2-2,2h-16
		c-1.105,0-2-0.896-2-2v-14c0-1.105,0.895-2,2-2h6l1.834,3H18.5c1.104,0,2,0.896,2,2V18.5z"/>
</g>
<line fill="none" stroke="#FFFFFF" stroke-miterlimit="10" x1="0" y1="8.5" x2="20" y2="8.5"/>
<g>
	<line fill="none" stroke="#FFFFFF" stroke-miterlimit="10" x1="13" y1="17.5" x2="24" y2="17.5"/>
	<line fill="none" stroke="#FFFFFF" stroke-miterlimit="10" x1="18.5" y1="12" x2="18.5" y2="23"/>
</g>
</svg>
