<?xml version="1.0" encoding="utf-8"?>
<!-- Generator: Adobe Illustrator 17.0.0, SVG Export Plug-In . SVG Version: 6.00 Build 0)  -->
<!DOCTYPE svg PUBLIC "-//W3C//DTD SVG 1.1//EN" "http://www.w3.org/Graphics/SVG/1.1/DTD/svg11.dtd">
<svg version="1.1" id="图层_1" xmlns="http://www.w3.org/2000/svg" xmlns:xlink="http://www.w3.org/1999/xlink" x="0px" y="0px"
	 width="30px" height="30px" viewBox="0 0 30 30" enable-background="new 0 0 30 30" xml:space="preserve">
<path fill="none" stroke="#FFFFFF" stroke-width="0.9789" stroke-miterlimit="10" d="M26.7,14.638c0,1.862-5.149,6.938-11.5,6.938
	S3.7,16.6,3.7,14.638C3.7,13.1,8.849,7.7,15.2,7.7S26.7,12.9,26.7,14.638z"/>
<circle fill="none" stroke="#FFFFFF" stroke-miterlimit="10" cx="15.35" cy="14.55" r="4.35"/>
<path fill="none" stroke="#FFFFFF" stroke-width="0.9789" stroke-miterlimit="10" d="M26.7,14.638c0,1.862-5.149,6.938-11.5,6.938
	S3.7,16.6,3.7,14.638C3.7,13.5,8.849,7.7,15.2,7.7S26.7,12.9,26.7,14.638z"/>
<path fill="none" stroke="#FFFFFF" stroke-width="0.9789" stroke-miterlimit="10" d="M26.7,14.638c0,1.862-5.149,6.938-11.5,6.938
	S3.7,15.9,3.7,14.638C3.7,13.5,8.849,7.7,15.2,7.7S26.7,12.9,26.7,14.638z"/>
<path fill="none" stroke="#FFFFFF" stroke-width="0.9789" stroke-miterlimit="10" d="M26.7,14.638c0,1.362-5.149,6.938-11.5,6.938
	S3.7,15.9,3.7,14.638C3.7,13.5,8.849,7.7,15.2,7.7S26.7,13.2,26.7,14.638z"/>
</svg>
