<?xml version="1.0" encoding="utf-8"?>
<!-- Generator: Adobe Illustrator 19.0.0, SVG Export Plug-In . SVG Version: 6.00 Build 0)  -->
<svg version="1.1" id="图层_1" xmlns="http://www.w3.org/2000/svg" xmlns:xlink="http://www.w3.org/1999/xlink" x="0px" y="0px"
	width="42" height="42" viewBox="0 0 231 231" style="enable-background:new 0 0 231 231;" xml:space="preserve">
<style type="text/css">
	.st0{fill:#0DC957;}
	.st1{clip-path:url(#SVGID_2_);}
	.st2{fill-rule:evenodd;clip-rule:evenodd;fill:#FFFFFF;}
</style>
<circle class="st0" cx="115.5" cy="115.5" r="115.5"/>
<g>
	<defs>
		<circle id="SVGID_1_" cx="116" cy="115.5" r="115.5"/>
	</defs>
	<clipPath id="SVGID_2_">
		<use xlink:href="#SVGID_1_"  style="overflow:visible;"/>
	</clipPath>
	<g class="st1">
		<path class="st2" d="M190.8,104.1c0.5,6.5,6.1,11.3,12.5,10.8l45.1-3.7c6.4-0.5,11.1-6.2,10.6-12.7c-0.5-6.5-6.1-11.3-12.5-10.8
			l-45.1,3.7C195.1,91.9,190.3,97.6,190.8,104.1L190.8,104.1z"/>
		<path class="st2" d="M19.2,135.3c-1.9,6.2,1.5,12.8,7.6,14.6L70,163.2c6.1,1.9,12.6-1.7,14.5-7.9c1.9-6.2-1.5-12.8-7.6-14.6
			l-43.3-13.2C27.6,125.5,21.1,129.1,19.2,135.3L19.2,135.3z"/>
		<path class="st2" d="M125.5,216.8c2.3,4.3,7.8,5.9,12.3,3.6l9.3-4.9l11.8,22.2c3,5.7,10.1,7.8,15.8,4.7c5.7-3,8-10.1,5-15.7
			l-11.8-22.2l16.2-8.6l11.8,22.2c3,5.7,10.1,7.8,15.8,4.7c5.7-3,8-10.1,5-15.7l-11.8-22.2l9.3-4.9c4.5-2.4,6.2-7.8,3.9-12.2
			l-38.7-73l-92.6,49.1L125.5,216.8L125.5,216.8z"/>
		<path class="st2" d="M134.7,69.9l2.2-16.6c0.1-1-0.5-1.9-1.4-1.9c-0.9-0.1-1.7,0.6-1.9,1.6l-2.3,17.2c-7,0.9-14.2,3.1-21,6.7
			c-6.8,3.6-12.7,8.3-17.4,13.7l-15.5-7.8c-0.9-0.4-2-0.2-2.4,0.6c-0.4,0.8-0.1,1.8,0.8,2.2l14.9,7.5c-10.3,13.3-13.7,30-7.7,44.2
			l92.6-49.1C167.3,75.4,151.6,68.8,134.7,69.9z M103.3,110.8c-2.8,1.5-6.3,0.5-7.8-2.2c-1.5-2.7-0.3-6.2,2.5-7.7
			c2.8-1.5,6.3-0.5,7.7,2.2C107.3,105.9,106.1,109.3,103.3,110.8z M143,89.8c-2.8,1.5-6.3,0.5-7.8-2.2c-1.5-2.7-0.3-6.2,2.5-7.7
			c2.8-1.5,6.3-0.5,7.8,2.2C147,84.9,145.8,88.3,143,89.8z"/>
	</g>
</g>
</svg>
