<?xml version="1.0" encoding="utf-8"?>
<!-- Generator: Adobe Illustrator 19.0.0, SVG Export Plug-In . SVG Version: 6.00 Build 0)  -->
<svg version="1.1" id="图层_1" xmlns="http://www.w3.org/2000/svg" xmlns:xlink="http://www.w3.org/1999/xlink" x="0px" y="0px"
	 width="253.8px" height="252.6px" viewBox="-4379 62.8 253.8 252.6" style="enable-background:new -4379 62.8 253.8 252.6;"
	 xml:space="preserve">
<style type="text/css">
	.st0{opacity:5.000000e-002;}
	.st1{fill:none;stroke:#238DC6;stroke-width:1;stroke-miterlimit:10;}
	.st2{fill:#FFFFFF;}
</style>
<g class="st0">
	<ellipse class="st1" cx="-4252.1" cy="189" rx="126.4" ry="125.6"/>
	<circle class="st1" cx="-4251.8" cy="188.8" r="107.3"/>
	<circle class="st1" cx="-4251.8" cy="188.8" r="89.7"/>
	<circle class="st1" cx="-4251.8" cy="188.8" r="81.1"/>
	<circle class="st1" cx="-4251.8" cy="188.8" r="62.6"/>
	<circle class="st1" cx="-4251.8" cy="188.8" r="71.2"/>
	<circle class="st1" cx="-4251.8" cy="188.8" r="45"/>
	<circle class="st1" cx="-4251.8" cy="188.8" r="35.9"/>
	<circle class="st1" cx="-4251.8" cy="188.8" r="26.9"/>
	<circle class="st1" cx="-4251.8" cy="188.8" r="53.6"/>
</g>
<g class="st0">
	<circle class="st1" cx="-4251.8" cy="188.8" r="116.1"/>
	<circle class="st1" cx="-4251.8" cy="188.8" r="97.9"/>
	<line class="st1" x1="-4378.5" y1="189.8" x2="-4251.9" y2="189.8"/>
	<line class="st1" x1="-4378.3" y1="196.4" x2="-4251.9" y2="189.7"/>
	<line class="st1" x1="-4377.8" y1="202.9" x2="-4251.9" y2="189.7"/>
	<line class="st1" x1="-4376.9" y1="209.5" x2="-4251.8" y2="189.7"/>
	<line class="st1" x1="-4375.6" y1="216" x2="-4251.8" y2="189.7"/>
	<line class="st1" x1="-4374.1" y1="222.4" x2="-4251.8" y2="189.6"/>
	<line class="st1" x1="-4372.2" y1="228.7" x2="-4251.8" y2="189.6"/>
	<line class="st1" x1="-4369.9" y1="235" x2="-4251.8" y2="189.6"/>
	<line class="st1" x1="-4367.4" y1="241" x2="-4251.7" y2="189.6"/>
	<line class="st1" x1="-4364.5" y1="247" x2="-4251.7" y2="189.5"/>
	<line class="st1" x1="-4361.3" y1="252.8" x2="-4251.7" y2="189.5"/>
	<line class="st1" x1="-4357.9" y1="258.4" x2="-4251.7" y2="189.5"/>
	<line class="st1" x1="-4354.1" y1="263.8" x2="-4251.7" y2="189.4"/>
	<line class="st1" x1="-4350.1" y1="269.1" x2="-4251.7" y2="189.4"/>
	<line class="st1" x1="-4345.8" y1="274.1" x2="-4251.7" y2="189.4"/>
	<line class="st1" x1="-4341.2" y1="278.8" x2="-4251.7" y2="189.3"/>
	<line class="st1" x1="-4336.4" y1="283.4" x2="-4251.7" y2="189.3"/>
	<line class="st1" x1="-4331.4" y1="287.6" x2="-4251.7" y2="189.3"/>
	<line class="st1" x1="-4326.1" y1="291.6" x2="-4251.7" y2="189.2"/>
	<line class="st1" x1="-4320.6" y1="295.4" x2="-4251.7" y2="189.2"/>
	<line class="st1" x1="-4315" y1="298.8" x2="-4251.7" y2="189.2"/>
	<line class="st1" x1="-4309.2" y1="301.9" x2="-4251.7" y2="189.1"/>
	<line class="st1" x1="-4303.2" y1="304.7" x2="-4251.7" y2="189.1"/>
	<line class="st1" x1="-4297.1" y1="307.3" x2="-4251.7" y2="189.1"/>
	<line class="st1" x1="-4290.8" y1="309.4" x2="-4251.7" y2="189"/>
	<line class="st1" x1="-4284.5" y1="311.3" x2="-4251.7" y2="189"/>
	<line class="st1" x1="-4278.1" y1="312.8" x2="-4251.8" y2="189"/>
	<line class="st1" x1="-4271.6" y1="314" x2="-4251.8" y2="188.9"/>
	<line class="st1" x1="-4265" y1="314.8" x2="-4251.8" y2="188.9"/>
	<line class="st1" x1="-4258.4" y1="315.3" x2="-4251.8" y2="188.9"/>
	<line class="st1" x1="-4251.8" y1="315.5" x2="-4251.8" y2="188.9"/>
	<line class="st1" x1="-4245.2" y1="315.3" x2="-4251.9" y2="188.8"/>
	<line class="st1" x1="-4238.7" y1="314.7" x2="-4251.9" y2="188.8"/>
	<line class="st1" x1="-4232.1" y1="313.8" x2="-4251.9" y2="188.8"/>
	<line class="st1" x1="-4225.6" y1="312.6" x2="-4251.9" y2="188.8"/>
	<line class="st1" x1="-4219.2" y1="311" x2="-4252" y2="188.8"/>
	<line class="st1" x1="-4212.9" y1="309.1" x2="-4252" y2="188.7"/>
	<line class="st1" x1="-4206.7" y1="306.9" x2="-4252" y2="188.7"/>
	<line class="st1" x1="-4200.6" y1="304.4" x2="-4252.1" y2="188.7"/>
	<line class="st1" x1="-4194.6" y1="301.5" x2="-4252.1" y2="188.7"/>
	<line class="st1" x1="-4188.8" y1="298.3" x2="-4252.1" y2="188.7"/>
	<line class="st1" x1="-4183.2" y1="294.8" x2="-4252.2" y2="188.7"/>
	<line class="st1" x1="-4177.8" y1="291.1" x2="-4252.2" y2="188.7"/>
	<line class="st1" x1="-4172.5" y1="287" x2="-4252.2" y2="188.7"/>
	<line class="st1" x1="-4167.5" y1="282.7" x2="-4252.2" y2="188.7"/>
	<line class="st1" x1="-4162.8" y1="278.2" x2="-4252.3" y2="188.7"/>
	<line class="st1" x1="-4158.2" y1="273.4" x2="-4252.3" y2="188.7"/>
	<line class="st1" x1="-4154" y1="268.3" x2="-4252.3" y2="188.7"/>
	<line class="st1" x1="-4150" y1="263.1" x2="-4252.4" y2="188.7"/>
	<line class="st1" x1="-4146.3" y1="257.6" x2="-4252.4" y2="188.7"/>
	<line class="st1" x1="-4142.8" y1="252" x2="-4252.4" y2="188.7"/>
	<line class="st1" x1="-4139.7" y1="246.1" x2="-4252.5" y2="188.7"/>
	<line class="st1" x1="-4136.9" y1="240.2" x2="-4252.5" y2="188.7"/>
	<line class="st1" x1="-4134.4" y1="234.1" x2="-4252.5" y2="188.7"/>
	<line class="st1" x1="-4132.2" y1="227.8" x2="-4252.6" y2="188.7"/>
	<line class="st1" x1="-4130.3" y1="221.5" x2="-4252.6" y2="188.7"/>
	<line class="st1" x1="-4128.8" y1="215.1" x2="-4252.6" y2="188.7"/>
	<line class="st1" x1="-4127.6" y1="208.6" x2="-4252.7" y2="188.8"/>
	<line class="st1" x1="-4126.8" y1="202" x2="-4252.7" y2="188.8"/>
	<line class="st1" x1="-4126.3" y1="195.4" x2="-4252.7" y2="188.8"/>
	<line class="st1" x1="-4125.7" y1="188.8" x2="-4252.7" y2="188.8"/>
	<line class="st1" x1="-4125.9" y1="182.2" x2="-4252.8" y2="188.8"/>
	<line class="st1" x1="-4126.9" y1="175.6" x2="-4252.8" y2="188.9"/>
	<line class="st1" x1="-4127.8" y1="169.1" x2="-4252.8" y2="188.9"/>
	<line class="st1" x1="-4129" y1="162.6" x2="-4252.8" y2="188.9"/>
	<line class="st1" x1="-4130.6" y1="156.2" x2="-4252.9" y2="188.9"/>
	<line class="st1" x1="-4132.5" y1="149.9" x2="-4252.9" y2="189"/>
	<line class="st1" x1="-4134.7" y1="143.6" x2="-4252.9" y2="189"/>
	<line class="st1" x1="-4137.3" y1="137.5" x2="-4252.9" y2="189"/>
	<line class="st1" x1="-4140.1" y1="131.6" x2="-4252.9" y2="189.1"/>
	<line class="st1" x1="-4143.3" y1="125.8" x2="-4252.9" y2="189.1"/>
	<line class="st1" x1="-4146.8" y1="120.2" x2="-4252.9" y2="189.1"/>
	<line class="st1" x1="-4150.5" y1="114.7" x2="-4252.9" y2="189.2"/>
	<line class="st1" x1="-4154.6" y1="109.5" x2="-4253" y2="189.2"/>
	<line class="st1" x1="-4158.9" y1="104.5" x2="-4253" y2="189.2"/>
	<line class="st1" x1="-4163.5" y1="99.7" x2="-4253" y2="189.3"/>
	<line class="st1" x1="-4168.3" y1="95.2" x2="-4253" y2="189.3"/>
	<line class="st1" x1="-4173.3" y1="90.9" x2="-4253" y2="189.3"/>
	<line class="st1" x1="-4178.6" y1="86.9" x2="-4253" y2="189.4"/>
	<line class="st1" x1="-4184" y1="83.2" x2="-4253" y2="189.4"/>
	<line class="st1" x1="-4189.6" y1="79.8" x2="-4252.9" y2="189.4"/>
	<line class="st1" x1="-4195.5" y1="76.6" x2="-4252.9" y2="189.4"/>
	<line class="st1" x1="-4201.4" y1="73.8" x2="-4252.9" y2="189.5"/>
	<line class="st1" x1="-4207.5" y1="71.3" x2="-4252.9" y2="189.5"/>
	<line class="st1" x1="-4213.8" y1="69.1" x2="-4252.9" y2="189.5"/>
	<line class="st1" x1="-4220.1" y1="67.3" x2="-4252.9" y2="189.6"/>
	<line class="st1" x1="-4226.6" y1="65.8" x2="-4252.9" y2="189.6"/>
	<line class="st1" x1="-4233.1" y1="64.6" x2="-4252.9" y2="189.6"/>
	<line class="st1" x1="-4239.6" y1="63.8" x2="-4252.8" y2="189.7"/>
	<line class="st1" x1="-4246.2" y1="63.3" x2="-4252.8" y2="189.7"/>
	<line class="st1" x1="-4252.8" y1="63.1" x2="-4252.8" y2="189.7"/>
	<line class="st1" x1="-4259.4" y1="63.3" x2="-4252.8" y2="189.7"/>
	<line class="st1" x1="-4266" y1="63.9" x2="-4252.8" y2="189.8"/>
	<line class="st1" x1="-4272.5" y1="64.8" x2="-4252.7" y2="189.8"/>
	<line class="st1" x1="-4279" y1="66" x2="-4252.7" y2="189.8"/>
	<line class="st1" x1="-4285.4" y1="67.5" x2="-4252.7" y2="189.8"/>
	<line class="st1" x1="-4291.8" y1="69.4" x2="-4252.6" y2="189.8"/>
	<line class="st1" x1="-4298" y1="71.7" x2="-4252.6" y2="189.9"/>
	<line class="st1" x1="-4304.1" y1="74.2" x2="-4252.6" y2="189.9"/>
	<line class="st1" x1="-4310" y1="77.1" x2="-4252.6" y2="189.9"/>
	<line class="st1" x1="-4315.8" y1="80.3" x2="-4252.5" y2="189.9"/>
	<line class="st1" x1="-4321.4" y1="83.7" x2="-4252.5" y2="189.9"/>
	<line class="st1" x1="-4326.9" y1="87.5" x2="-4252.5" y2="189.9"/>
	<line class="st1" x1="-4332.1" y1="91.5" x2="-4252.4" y2="189.9"/>
	<line class="st1" x1="-4337.1" y1="95.8" x2="-4252.4" y2="189.9"/>
	<line class="st1" x1="-4341.9" y1="100.4" x2="-4252.4" y2="189.9"/>
	<line class="st1" x1="-4346.4" y1="105.2" x2="-4252.3" y2="189.9"/>
	<line class="st1" x1="-4350.7" y1="110.3" x2="-4252.3" y2="189.9"/>
	<line class="st1" x1="-4354.7" y1="115.5" x2="-4252.3" y2="189.9"/>
	<line class="st1" x1="-4358.4" y1="121" x2="-4252.2" y2="189.9"/>
	<line class="st1" x1="-4361.8" y1="126.6" x2="-4252.2" y2="189.9"/>
	<line class="st1" x1="-4365" y1="132.4" x2="-4252.2" y2="189.9"/>
	<line class="st1" x1="-4367.8" y1="138.4" x2="-4252.1" y2="189.9"/>
	<line class="st1" x1="-4370.3" y1="144.5" x2="-4252.1" y2="189.9"/>
	<line class="st1" x1="-4372.5" y1="150.8" x2="-4252.1" y2="189.9"/>
	<line class="st1" x1="-4374.3" y1="157.1" x2="-4252" y2="189.9"/>
	<line class="st1" x1="-4375.8" y1="163.5" x2="-4252" y2="189.8"/>
	<line class="st1" x1="-4377" y1="170" x2="-4252" y2="189.8"/>
	<line class="st1" x1="-4377.9" y1="176.6" x2="-4252" y2="189.8"/>
	<line class="st1" x1="-4378.3" y1="183.2" x2="-4251.9" y2="189.8"/>
	<line class="st1" x1="-4378.5" y1="189.8" x2="-4251.9" y2="189.8"/>
</g>
<circle class="st2" cx="-4251.9" cy="188.9" r="8.8"/>
</svg>
