<?xml version="1.0" encoding="utf-8"?>
<!-- Generator: Adobe Illustrator 19.0.0, SVG Export Plug-In . SVG Version: 6.00 Build 0)  -->
<svg version="1.1" id="隔离模式" xmlns="http://www.w3.org/2000/svg" xmlns:xlink="http://www.w3.org/1999/xlink" x="0px"
	 y="0px" width="42" height="42" viewBox="0 0 42 42" style="enable-background:new 0 0 42 42;" xml:space="preserve">
<style type="text/css">
	.st0{fill:#FCFCFC;}
</style>
<circle cx="21" cy="21" r="21"/>
<g>
	<path class="st0" d="M30.7,25.1c-0.6,1.2-0.8,1.8-1.6,2.9c-1,1.5-2.4,3.5-4.2,3.5c-1.6,0-2-1-4.1-1c-2.1,0-2.6,1-4.1,1
		c-1.8,0-3.1-1.7-4.1-3.3c-2.8-4.3-3.1-9.3-1.4-12c1.2-1.9,3.2-3,5-3c1.9,0,3,1,4.6,1c1.5,0,2.4-1,4.6-1c1.6,0,3.4,0.9,4.6,2.4
		C26,17.8,26.6,23.5,30.7,25.1z"/>
	<g>
		<path class="st0" d="M23.8,11.4c0.8-1,1.4-2.4,1.2-3.9c-1.3,0.1-2.8,0.9-3.7,2c-0.8,1-1.5,2.4-1.2,3.8
			C21.5,13.3,22.9,12.5,23.8,11.4z"/>
	</g>
</g>
</svg>
