<?xml version="1.0" encoding="utf-8"?>
<!-- Generator: Adobe Illustrator 19.0.0, SVG Export Plug-In . SVG Version: 6.00 Build 0)  -->
<svg version="1.1" id="图层_1" xmlns="http://www.w3.org/2000/svg" xmlns:xlink="http://www.w3.org/1999/xlink" x="0px" y="0px"
	 width="253px" height="253px" viewBox="-4207.6 -232.1 1268 1264.7"
	 style="enable-background:new -4207.6 -232.1 1268 1264.7;" xml:space="preserve">
<style type="text/css">
	.st0{fill:#94DAFF;}
	.st1{fill:url(#SVGID_1_);}
</style>
<path class="st0" d="M-2939.8,399.1h-634.7l633-46.9C-2941.5,352.2-2938.9,395.8-2939.8,399.1z"/>
<linearGradient id="SVGID_1_" gradientUnits="userSpaceOnUse" x1="-4207.6001" y1="752.6301" x2="-2939.8" y2="752.6301" gradientTransform="matrix(1 0 0 -1 0 836.2701)">
	<stop  offset="0" style="stop-color:#FFFFFF;stop-opacity:0"/>
	<stop  offset="1" style="stop-color:#94DAFF;stop-opacity:0.5"/>
</linearGradient>
<path class="st1" d="M-2989.6,153.2c-31.9-75-77.6-142.4-135.9-200.3c-58.2-57.9-126-103.3-201.5-135.1
	c-78.2-32.9-161.2-49.5-246.7-49.5s-168.6,16.7-246.7,49.5c-75.5,31.7-143.3,77.2-201.5,135.1s-103.9,125.3-135.9,200.3
	c-33.1,77.7-49.8,160.2-49.8,245.3v0.5h1267.8v-0.5C-2939.8,313.5-2956.5,230.9-2989.6,153.2z"/>
</svg>
