<?xml version="1.0" encoding="utf-8"?>
<!-- Generator: Adobe Illustrator 17.0.0, SVG Export Plug-In . SVG Version: 6.00 Build 0)  -->
<!DOCTYPE svg PUBLIC "-//W3C//DTD SVG 1.1//EN" "http://www.w3.org/Graphics/SVG/1.1/DTD/svg11.dtd">
<svg version="1.1" id="图层_1" xmlns="http://www.w3.org/2000/svg" xmlns:xlink="http://www.w3.org/1999/xlink" x="0px" y="0px"
	 width="20px" height="20px" viewBox="0 0 20 20" enable-background="new 0 0 20 20" xml:space="preserve">
<g>
	<path fill="#FFFFFF" d="M3.221,16.843c-0.239-0.101-0.455-0.248-0.636-0.429C2.767,16.595,2.982,16.742,3.221,16.843z"/>
	<path opacity="0.6" fill="#FFFFFF" d="M16,5h-5.8L7.9,3H4C2.895,3,2,3.895,2,5v2h16C18,5.895,17.105,5,16,5z"/>
	<path fill="#FFFFFF" d="M17.414,16.414c-0.181,0.181-0.396,0.327-0.636,0.429C17.018,16.742,17.233,16.595,17.414,16.414z"/>
	<path fill="#FFFFFF" d="M2.586,16.414c-0.271-0.271-0.465-0.62-0.545-1.011C2.121,15.794,2.314,16.143,2.586,16.414z"/>
	<path fill="#FFFFFF" d="M17.959,15.403c-0.08,0.391-0.274,0.74-0.545,1.011C17.686,16.143,17.879,15.794,17.959,15.403z"/>
</g>
<path opacity="0.95" fill="#FFFFFF" d="M2,8v7c0,1.104,0.895,2,2,2h12c1.105,0,2-0.896,2-2V8H2z"/>
</svg>
