<svg xmlns="http://www.w3.org/2000/svg" viewBox="0 0 162 84.17"><title>gift</title><g id="图层_2" data-name="图层 2"><g id="图层_6" data-name="图层 6"><path d="M64.43,8.72A2.53,2.53,0,0,0,62.21,11a2.52,2.52,0,0,0-2.76,1.58A2.92,2.92,0,0,0,61.11,16,7,7,0,0,0,66,16.2.67.67,0,0,0,66.3,16a6.89,6.89,0,0,0,1-4.78A2.93,2.93,0,0,0,64.43,8.72Z" fill="#f97396"/><path d="M103.05,5.45c-.82-1.5-2.72-2.69-5.69-2C96.2.65,94.12-.18,92.43,0A5.53,5.53,0,0,0,88,5.6a13.18,13.18,0,0,0,3.55,8.51,1.25,1.25,0,0,0,.69.36,13.22,13.22,0,0,0,9-2.12A5.55,5.55,0,0,0,103.05,5.45Z" fill="#f97396"/><rect x="49.75" y="41.17" width="60" height="13" fill="#f97396"/><path d="M54.25,54.17h51a0,0,0,0,1,0,0v24a6,6,0,0,1-6,6h-39a6,6,0,0,1-6-6v-24A0,0,0,0,1,54.25,54.17Z" fill="#fcb6cc"/><path d="M88.73,30.14c2.86-1.6,5.44-1.71,7.1-.31A3.89,3.89,0,0,1,97,34.09c-.71,2-2.87,5.65-9.38,8a.51.51,0,0,0-.2.12H80.17C80.52,40.45,82.24,33.77,88.73,30.14Z" fill="none" stroke="#f97396" stroke-miterlimit="10" stroke-width="2"/><path d="M80.2,42.17H73a.56.56,0,0,0-.2-.12c-6.51-2.36-8.67-6-9.38-8a3.89,3.89,0,0,1,1.16-4.27c1.65-1.4,4.23-1.28,7.09.32C78.13,33.73,79.85,40.41,80.2,42.17Z" fill="none" stroke="#f97396" stroke-miterlimit="10" stroke-width="2"/><rect x="78.25" y="30.17" width="3" height="51" transform="translate(135.42 -24.08) rotate(90)" fill="#f97396" opacity="0.3"/><rect x="76" y="41.17" width="9" height="43" fill="#fff" opacity="0.5"/><line x1="18" y1="58.17" x2="39" y2="58.17" fill="none" stroke="#fcb6cc" stroke-linecap="round" stroke-linejoin="round" stroke-width="2"/><line x1="1" y1="58.17" x2="9" y2="58.17" fill="none" stroke="#fcb6cc" stroke-linecap="round" stroke-linejoin="round" stroke-width="2"/><line x1="43" y1="74.17" x2="48" y2="74.17" fill="none" stroke="#fcb6cc" stroke-linecap="round" stroke-linejoin="round" stroke-width="2"/><line x1="22" y1="74.17" x2="36" y2="74.17" fill="none" stroke="#fcb6cc" stroke-linecap="round" stroke-linejoin="round" stroke-width="2"/><line x1="144" y1="58.17" x2="123" y2="58.17" fill="none" stroke="#fcb6cc" stroke-linecap="round" stroke-linejoin="round" stroke-width="2"/><line x1="161" y1="58.17" x2="153" y2="58.17" fill="none" stroke="#fcb6cc" stroke-linecap="round" stroke-linejoin="round" stroke-width="2"/><line x1="119" y1="74.17" x2="114" y2="74.17" fill="none" stroke="#fcb6cc" stroke-linecap="round" stroke-linejoin="round" stroke-width="2"/><line x1="140" y1="74.17" x2="126" y2="74.17" fill="none" stroke="#fcb6cc" stroke-linecap="round" stroke-linejoin="round" stroke-width="2"/><circle cx="34.5" cy="32.67" r="2.5" fill="none" stroke="#fcb6cc" stroke-linecap="round" stroke-linejoin="round" stroke-width="2"/><circle cx="127.5" cy="32.67" r="3.5" fill="none" stroke="#fcb6cc" stroke-linecap="round" stroke-linejoin="round" stroke-width="2"/></g></g></svg>