<?xml version="1.0" encoding="utf-8"?>
<!-- Generator: Adobe Illustrator 17.0.0, SVG Export Plug-In . SVG Version: 6.00 Build 0)  -->
<!DOCTYPE svg PUBLIC "-//W3C//DTD SVG 1.1//EN" "http://www.w3.org/Graphics/SVG/1.1/DTD/svg11.dtd">
<svg version="1.1" id="图层_1" xmlns="http://www.w3.org/2000/svg" xmlns:xlink="http://www.w3.org/1999/xlink" x="0px" y="0px" viewBox="0 0 42 42" enable-background="new 0 0 42 42" xml:space="preserve">
<circle fill="none" stroke="#C7E3F5" stroke-width="0.7895" stroke-miterlimit="10" cx="21" cy="21" r="7.5"/>
<circle fill="none" stroke="#C7E3F5" stroke-width="1.9" stroke-miterlimit="10" cx="21" cy="21" r="19"/>
<circle fill="#C7E3F5" cx="21" cy="21" r="4"/>
<path fill="#C7E3F5" d="M27.972,27.436c-0.048,0.064-0.119,0.147-0.255,0.282c-0.13,0.13-0.21,0.2-0.275,0.248
	c-0.187,0.173-0.377,0.342-0.575,0.498l3.119,5.766c0.819-0.555,1.601-1.19,2.327-1.916s1.361-1.507,1.916-2.327l-5.768-3.116
	C28.309,27.065,28.143,27.251,27.972,27.436z"/>
<path fill="#C7E3F5" d="M14.034,14.557c0.049-0.064,0.119-0.145,0.248-0.275c0.135-0.135,0.217-0.206,0.282-0.255
	c0.184-0.17,0.371-0.337,0.565-0.49L12.013,7.77c-0.819,0.555-1.601,1.19-2.327,1.916c-0.726,0.726-1.361,1.507-1.916,2.327
	l5.766,3.119C13.692,14.935,13.861,14.745,14.034,14.557z"/>
</svg>
