<?xml version="1.0" encoding="utf-8"?>
<!-- Generator: Adobe Illustrator 19.0.0, SVG Export Plug-In . SVG Version: 6.00 Build 0)  -->
<svg version="1.1" id="圆角矩形_4_1_" xmlns="http://www.w3.org/2000/svg" xmlns:xlink="http://www.w3.org/1999/xlink" x="0px"
	 y="0px" viewBox="0 0 24 24" width="24" height="24" style="enable-background:new 0 0 24 24;" xml:space="preserve">
<style type="text/css">
	.st0{fill:#333333;}
</style>
<g id="圆角矩形_4">
	<path class="st0" d="M2,19v-2H1v3c0,1.1,0.9,2,2,2h3v-1H4C2.9,21,2,20.1,2,19z M2,5c0-1.1,0.9-2,2-2h2V2H3C1.9,2,1,2.9,1,4v3h1V5z
		 M21,2h-3v1h2c1.1,0,2,0.9,2,2v2h1V4C23,2.9,22.1,2,21,2z M20,17V7c0-1.1-0.9-2-2-2H6C4.9,5,4,5.9,4,7v10c0,1.1,0.9,2,2,2h12
		C19.1,19,20,18.1,20,17z M17,17H7c-0.6,0-1-0.4-1-1V8c0-0.6,0.4-1,1-1h10c0.6,0,1,0.4,1,1v8C18,16.6,17.6,17,17,17z M22,19
		c0,1.1-0.9,2-2,2h-2v1h3c1.1,0,2-0.9,2-2v-3h-1V19z"/>
</g>
</svg>
