<?xml version="1.0" encoding="utf-8"?>
<!-- Generator: Adobe Illustrator 19.0.0, SVG Export Plug-In . SVG Version: 6.00 Build 0)  -->
<svg version="1.1" id="图层_1" xmlns="http://www.w3.org/2000/svg" xmlns:xlink="http://www.w3.org/1999/xlink" x="0px" y="0px"
	 viewBox="0 0 24 24" width="24" height="24" style="enable-background:new 0 0 24 24;" xml:space="preserve">
<style type="text/css">
	.st0{fill:#8D8F91;}
</style>
<path id="XMLID_12_" class="st0" d="M20.9,2.2h-18c-1.1,0-2,0.9-2,2v16c0,1.1,0.9,2,2,2h18c1.1,0,2-0.9,2-2v-16
	C22.9,3.1,22,2.2,20.9,2.2z M21.9,19.2c0,1.1-0.9,2-2,2h-16c-1.1,0-2-0.9-2-2v-14c0-1.1,0.9-2,2-2h16c1.1,0,2,0.9,2,2V19.2z"/>
<g id="XMLID_2_">
	<path id="XMLID_6_" class="st0" d="M5.9,8.1c0-0.6,0.4-1,1-1h2v-2h-3c-1.1,0-2,0.9-2,2v3h2C5.9,10.1,5.9,8.1,5.9,8.1z"/>
	<path id="XMLID_5_" class="st0" d="M16.9,7.1c0.6,0,1,0.4,1,1v2h2v-3c0-1.1-0.9-2-2-2h-3v2C14.9,7.1,16.9,7.1,16.9,7.1z"/>
	<path id="XMLID_4_" class="st0" d="M17.9,16.1c0,0.6-0.4,1-1,1h-2v2h3c1.1,0,2-0.9,2-2v-3h-2V16.1z"/>
	<path id="XMLID_3_" class="st0" d="M6.9,17.1c-0.6,0-1-0.4-1-1v-2h-2v3c0,1.1,0.9,2,2,2h3v-2H6.9z"/>
</g>
</svg>
