<?xml version="1.0" encoding="utf-8"?>
<!-- Generator: Adobe Illustrator 19.0.0, SVG Export Plug-In . SVG Version: 6.00 Build 0)  -->
<svg version="1.1" id="图层_1" xmlns="http://www.w3.org/2000/svg" xmlns:xlink="http://www.w3.org/1999/xlink" x="0px" y="0px"
	 viewBox="0 0 24 24" width="24" height="24" style="enable-background:new 0 0 24 24;" xml:space="preserve">
<style type="text/css">
	.st0{enable-background:new    ;}
	.st1{fill:#FFFFFF;}
</style>
<g id="圆角矩形_5_1_" class="st0">
	<g id="圆角矩形_5">
		<path id="XMLID_7_" class="st1" d="M20.4,4C17.6,4,13,4,13,4s-0.2-0.5-0.5-1c-0.6-1.2-1.2-1-2-1C8,2,3,2,3,2C1.9,2,1,2.9,1,4v1h21
			C22,5,22.1,4,20.4,4z M1,7l1,12c0.2,1.3,0.9,2,2,2h11v-1H5c-1.1,0-1.9-0.7-2-2L2,7h19c0,0,0,0.9,0,2h0.8L22,7c0-0.9,0-1,0-1H1
			C1,6,1,6.1,1,7z"/>
	</g>
</g>
<g id="圆角矩形_6_1_" class="st0">
	<g id="圆角矩形_6">
		<g id="XMLID_2_">
			<path id="XMLID_3_" class="st1" d="M22,10h-5c-0.6,0-1,0.4-1,1v10c0,0.6,0.4,1,1,1h5c0.6,0,1-0.4,1-1V11C23,10.5,22.6,10,22,10z
				 M20.5,21h-2c-0.3,0-0.5-0.2-0.5-0.5s0.2-0.5,0.5-0.5h2c0.3,0,0.5,0.2,0.5,0.5S20.8,21,20.5,21z M22,19h-5v-7h5V19z"/>
		</g>
	</g>
</g>
</svg>
