<?xml version="1.0" encoding="utf-8"?>
<!-- Generator: Adobe Illustrator 19.0.0, SVG Export Plug-In . SVG Version: 6.00 Build 0)  -->
<svg version="1.1" id="图层_1" xmlns="http://www.w3.org/2000/svg" xmlns:xlink="http://www.w3.org/1999/xlink" x="0px" y="0px"
	 viewBox="0 0 24 24" width="24" height="24" style="enable-background:new 0 0 24 24;" xml:space="preserve">
<style type="text/css">
	.st0{enable-background:new    ;}
	.st1{fill:#333333;}
</style>
<g id="椭圆_2_1_" class="st0">
	<g id="椭圆_2">
		<path id="XMLID_6_" class="st1" d="M14.7,3c0.6,0,1,0,1.6,1L17,5.6c0.1,0.2,0.2,0.3,0.5,0.4l2.1,0.9c1.6,0.7,2.4,1,2.4,2.3V20
			c0,0.3-0.4,1-1,1H7.6H3c-0.2,0-0.4-0.1-0.7-0.3C2.2,20.6,2,20.3,2,20V9.2c0-0.9,0.4-1.3,2.4-2.3L6.5,6C6.7,5.9,6.9,5.8,7,5.6
			L7.8,4c0.3-0.7,0.8-1,1.5-1H14.7 M14.7,2H9.3C8.4,2,7.5,2.3,6.9,3.5L6.1,5.1L4,6C1.8,7,1,7.7,1,8.8V20c0,1.2,0.7,2,2,2l0,0
			c-0.1,0,1.9,0,4.6,0c5.3,0,13.4,0,13.4,0c1.3,0,2-1.1,2-2V8.8c-0.1-1.7-1.1-2-3-2.8l-2.1-0.9l-0.8-1.5C16.3,2.1,15.6,2,14.7,2
			L14.7,2z"/>
	</g>
</g>
<g id="椭圆_2_拷贝_2_1_" class="st0">
	<g id="椭圆_2_拷贝_2">
		<path id="XMLID_3_" class="st1" d="M12,9c2.2,0,4,1.8,4,4s-1.8,4-4,4s-4-1.8-4-4S9.8,9,12,9 M12,7c-3.3,0-6,2.7-6,6s2.7,6,6,6
			s6-2.7,6-6S15.3,7,12,7L12,7z"/>
	</g>
</g>
<g id="椭圆_3_1_" class="st0">
	<g id="椭圆_3">
		<path id="XMLID_2_" class="st1" d="M13,10c-2.2,0-4,1.8-4,4h2.1c0.2-1,1-1.8,1.9-1.9V10z"/>
	</g>
</g>
</svg>
