<?xml version="1.0" encoding="utf-8"?>
<!-- Generator: Adobe Illustrator 19.0.0, SVG Export Plug-In . SVG Version: 6.00 Build 0)  -->
<svg version="1.1" id="图层_1" xmlns="http://www.w3.org/2000/svg" xmlns:xlink="http://www.w3.org/1999/xlink" x="0px" y="0px"
	 viewBox="0 0 24 24" width="24" height="24" style="enable-background:new 0 0 24 24;" xml:space="preserve">
<style type="text/css">
	.st0{enable-background:new    ;}
	.st1{fill:#FFFFFF;}
</style>
<g id="圆角矩形_5_1_" class="st0">
	<g id="圆角矩形_5">
		<path id="XMLID_5_" class="st1" d="M19.4,4.5c-2.8,0-7.4,0-7.4,0s-0.2-0.5-0.5-1c-0.6-1.2-1.2-1-2-1C7,2.5,2,2.5,2,2.5
			c-1.1,0-2,0.9-2,2v1h21C21,5.5,21.1,4.5,19.4,4.5z M0,7.5l1,12c0.1,1.4,0.9,2,2,2h11v-1H4c-1.1,0-1.9-0.7-2-2l-1-11h19
			c0,0,0,0.9,0,2h0.8l0.2-2c0-0.9,0-1,0-1H0C0,6.5,0,6.6,0,7.5z"/>
	</g>
</g>
<g id="圆角矩形_9_1_" class="st0">
	<g id="圆角矩形_9">
		<path id="XMLID_2_" class="st1" d="M23,10.5h-9c-0.6,0-1,0.4-1,1v7c0,0.6,0.4,1,1,1h4v1h-1.5c-0.3,0-0.5,0.2-0.5,0.5
			s0.2,0.5,0.5,0.5h4c0.3,0,0.5-0.2,0.5-0.5s-0.2-0.5-0.5-0.5H19v-1h4c0.6,0,1-0.4,1-1v-7C24,11,23.6,10.5,23,10.5z M23,17.5h-9v-6
			h9V17.5z"/>
	</g>
</g>
</svg>
