<?xml version="1.0" encoding="utf-8"?>
<!-- Generator: Adobe Illustrator 19.0.0, SVG Export Plug-In . SVG Version: 6.00 Build 0)  -->
<svg version="1.1" id="图层_1" xmlns="http://www.w3.org/2000/svg" xmlns:xlink="http://www.w3.org/1999/xlink" x="0px" y="0px"
	 viewBox="0 0 37 37" width="37" height="37" style="enable-background:new 0 0 37 37;" xml:space="preserve">
<style type="text/css">
	.st0{fill:#BABABA;}
	.st1{fill-rule:evenodd;clip-rule:evenodd;fill:#666666;}
</style>
<g id="椭圆_7">
	<path id="XMLID_5_" class="st0" d="M18.5,1C28.1,1,36,8.9,36,18.5C36,24.2,31.7,36,18.5,36C8.9,36,1,28.1,1,18.5
		C1,8.9,8.9,1,18.5,1 M18.5,0C8.3,0,0,8.3,0,18.5S8.3,37,18.5,37C32,37,37,25.1,37,18.5C37,8.3,28.7,0,18.5,0L18.5,0z"/>
</g>
<g id="椭圆_8">
	<path id="XMLID_2_" class="st1" d="M19,12c1.1,0,2-0.9,2-2s-0.9-2-2-2c-1.1,0-2,0.9-2,2S17.9,12,19,12z M19,14c-1.1,0-2,0.9-2,2v12
		c0,1.1,0.9,2,2,2c1.1,0,2-0.9,2-2V16C21,14.9,20.1,14,19,14z"/>
</g>
</svg>
