<?xml version="1.0" encoding="utf-8"?>
<!-- Generator: Adobe Illustrator 16.0.0, SVG Export Plug-In . SVG Version: 6.00 Build 0)  -->
<!DOCTYPE svg PUBLIC "-//W3C//DTD SVG 1.1//EN" "http://www.w3.org/Graphics/SVG/1.1/DTD/svg11.dtd">
<svg version="1.1" id="图层_1" xmlns="http://www.w3.org/2000/svg" xmlns:xlink="http://www.w3.org/1999/xlink" x="0px" y="0px"
	 width="354px" height="273px" viewBox="1 0 354 273" enable-background="new 0 0 355 273" xml:space="preserve">
<path id="XMLID_1_" fill="none" stroke="#C7C7C7" stroke-miterlimit="10" d="M59.5,272.5v-232c0-22,18-40,40-40h157
	c22,0,40,18,40,40v232"/>
<path id="XMLID_2_" fill="#BABBBB" d="M196.4,21.4h-46c-1.1,0-2-0.9-2-2l0,0c0-1.1,0.9-2,2-2h46c1.101,0,2,0.9,2,2l0,0
	C198.4,20.5,197.5,21.4,196.4,21.4z"/>
<circle id="XMLID_3_" fill="#BABBBB" cx="204.4" cy="19.4" r="2"/>
<circle id="XMLID_5_" fill="#BABBBB" cx="210.5" cy="19.4" r="2"/>
<rect id="XMLID_4_" x="61.018" y="48" fill="#C3C3C3" width="233.982" height="1"/>
<rect id="XMLID_7_" x="0" y="272" fill="#E0E0E0" width="355" height="1"/>
<rect id="XMLID_6_" x="61.018" y="49" fill="#FFFFFF" width="233.982" height="223"/>
</svg>
