<?xml version="1.0" encoding="utf-8"?>
<!-- Generator: Adobe Illustrator 19.0.0, SVG Export Plug-In . SVG Version: 6.00 Build 0)  -->
<svg version="1.1" xmlns="http://www.w3.org/2000/svg" xmlns:xlink="http://www.w3.org/1999/xlink" x="0px" y="0px"
	 viewBox="0 0 31 28" width="31" height="28" style="enable-background:new 0 0 31 28;" xml:space="preserve">
<style type="text/css">
	.st0{enable-background:new    ;}
	.st1{fill-rule:evenodd;clip-rule:evenodd;fill:#90C7E9;}
	.st2{fill-rule:evenodd;clip-rule:evenodd;fill:#FFFFFF;}
	.st3{fill-rule:evenodd;clip-rule:evenodd;fill:#8DBCE5;}
	.st4{opacity:0.502;enable-background:new    ;}
</style>
<g id="圆角矩形_3_拷贝_6_1_" class="st0">
	<g id="圆角矩形_3_拷贝_6">
		<path class="st1" d="M20.5,27H16v-6.5c0-0.3-0.2-0.5-0.5-0.5S15,20.2,15,20.5V27h-4.5c-0.3,0-0.5,0.2-0.5,0.5s0.2,0.5,0.5,0.5h10
			c0.3,0,0.5-0.2,0.5-0.5S20.8,27,20.5,27z"/>
	</g>
</g>
<g id="圆角矩形_3_拷贝_3_1_" class="st0">
	<g id="圆角矩形_3_拷贝_3">
		<path class="st2" d="M29,0H2C0.9,0,0,0.9,0,2v18c0,1.1,0.9,2,2,2h27c1.1,0,2-0.9,2-2V2C31,0.9,30.1,0,29,0z"/>
	</g>
</g>
<g id="圆角矩形_17_拷贝_1_" class="st0">
	<g id="圆角矩形_17_拷贝">
		<path class="st3" d="M27,5H4C3.4,5,3,5.4,3,6v10c0,0.6,0.4,1,1,1h23c0.6,0,1-0.4,1-1V6C28,5.4,27.6,5,27,5z"/>
	</g>
</g>
<g id="矩形_7_拷贝_1_" class="st0">
	<g id="矩形_7_拷贝">
		<rect x="7" y="6" class="st2" width="16" height="10"/>
	</g>
</g>
<g id="Forma_1_拷贝_6_1_" class="st0">
	<g id="Forma_1_拷贝_6">
		<path class="st3" d="M17.6,10.4l-3.5-2.3C13.9,8.1,13.8,8,13.6,8C13.2,8,13,8.3,13,8.8v4.5c0,0.4,0.3,0.7,0.6,0.7
			c0.1,0,0.3,0,0.4-0.1l3.5-2.2c0.3-0.2,0.4-0.4,0.4-0.6C18,10.8,17.9,10.5,17.6,10.4z"/>
	</g>
</g>
<g id="矩形_8_拷贝_2_3_" class="st4">
	<g id="矩形_8_拷贝_2">
		<path class="st2" d="M5,11h1V9H5V11z M25,9v4h1V9H25z"/>
	</g>
	<rect x="5" y="12" class="st2" width="1" height="1"/>
</g>
</svg>
