<svg id="Layer_2" data-name="Layer 2" xmlns="http://www.w3.org/2000/svg" width="19.01" height="19.01" viewBox="0 0 19.01 19.01"><defs><style>.cls-1,.cls-2{fill:none;stroke:#666;stroke-linecap:round;stroke-width:1.01px;}.cls-1{stroke-miterlimit:10;}.cls-2{stroke-linejoin:round;}</style></defs><title>copy</title><rect class="cls-1" x="0.5" y="0.5" width="15" height="15" rx="2.14" ry="2.14"/><path class="cls-1" d="M152.32,91.14h.86a2.14,2.14,0,0,1,2.14,2.14V104a2.14,2.14,0,0,1-2.14,2.14H142.46a2.14,2.14,0,0,1-2.14-2.14v-.86" transform="translate(-136.81 -87.63)"/><line class="cls-2" x1="11.95" y1="8" x2="10.63" y2="6.72"/><line class="cls-2" x1="4.5" y1="8" x2="11.5" y2="8"/><line class="cls-2" x1="11.95" y1="8" x2="10.63" y2="9.29"/><line class="cls-2" x1="4.07" y1="8" x2="5.4" y2="6.72"/><line class="cls-2" x1="4.07" y1="8" x2="5.4" y2="9.29"/><line class="cls-2" x1="8" y1="4.17" x2="9.29" y2="5.5"/><line class="cls-2" x1="8" y1="4.17" x2="6.72" y2="5.5"/><line class="cls-2" x1="8" y1="11.97" x2="9.29" y2="10.65"/><line class="cls-2" x1="8" y1="11.97" x2="6.72" y2="10.65"/><line class="cls-1" x1="8" y1="4.5" x2="8" y2="11.5"/></svg>