<?xml version="1.0" encoding="utf-8"?>
<!-- Generator: Adobe Illustrator 17.0.0, SVG Export Plug-In . SVG Version: 6.00 Build 0)  -->
<!DOCTYPE svg PUBLIC "-//W3C//DTD SVG 1.1//EN" "http://www.w3.org/Graphics/SVG/1.1/DTD/svg11.dtd">
<svg version="1.1" id="图层_1" xmlns="http://www.w3.org/2000/svg" xmlns:xlink="http://www.w3.org/1999/xlink" x="0px" y="0px"
	 width="24px" height="24px" viewBox="0 0 24 24" enable-background="new 0 0 24 24" xml:space="preserve">
<path fill="none" stroke="#666666" stroke-miterlimit="10" d="M18.5,8.75c0,0.966-0.784,1.75-1.75,1.75h-3.5
	c-0.966,0-1.75-0.784-1.75-1.75v-3.5c0-0.966,0.784-1.75,1.75-1.75h3.5c0.526,0,1.75,0,1.75,0s0,1.309,0,1.75V8.75z"/>
<path fill="none" stroke="#666666" stroke-miterlimit="10" d="M2.5,8.75c0,0.966,0.784,1.75,1.75,1.75h3.5
	c0.966,0,1.75-0.784,1.75-1.75v-3.5c0-0.966-0.784-1.75-1.75-1.75h-3.5c-0.526,0-1.75,0-1.75,0s0,1.309,0,1.75V8.75z"/>
<path fill="none" stroke="#666666" stroke-miterlimit="10" d="M14,12.5h-0.75c-0.966,0-1.75,0.784-1.75,1.75v3.5
	c0,0.966,0.784,1.75,1.75,1.75H15"/>
<path fill="none" stroke="#666666" stroke-miterlimit="10" d="M18.25,15.25"/>
<path fill="none" stroke="#666666" stroke-miterlimit="10" d="M2.5,14.25c0-0.966,0.784-1.75,1.75-1.75h3.5
	c0.966,0,1.75,0.784,1.75,1.75v3.5c0,0.966-0.784,1.75-1.75,1.75h-3.5c-0.526,0-1.75,0-1.75,0s0-1.309,0-1.75V14.25z"/>
<g>
	<line fill="none" stroke="#666666" stroke-miterlimit="10" x1="14" y1="16.5" x2="23" y2="16.5"/>
	<line fill="none" stroke="#666666" stroke-miterlimit="10" x1="18.5" y1="12" x2="18.5" y2="21"/>
</g>
</svg>
