<?xml version="1.0" encoding="utf-8"?>
<!-- Generator: Adobe Illustrator 17.0.0, SVG Export Plug-In . SVG Version: 6.00 Build 0)  -->
<!DOCTYPE svg PUBLIC "-//W3C//DTD SVG 1.1//EN" "http://www.w3.org/Graphics/SVG/1.1/DTD/svg11.dtd">
<svg version="1.1" xmlns="http://www.w3.org/2000/svg" xmlns:xlink="http://www.w3.org/1999/xlink" x="0px" y="0px" width="24px"
	 height="24px" viewBox="0 0 24 24" enable-background="new 0 0 24 24" xml:space="preserve">
<g id="wallpaper_1_">
	<g id="wall">
		<path fill="none" stroke="#666666" stroke-width="0.9565" stroke-linecap="round" stroke-miterlimit="10" d="M2.679,17.1
			l4.676-4.543c0.752-0.741,2.014-0.741,2.766,0l5.558,5.444"/>
		<path fill="none" stroke="#666666" stroke-linecap="round" stroke-miterlimit="10" d="M22,19.389c0,1.166-0.945,2.111-2.111,2.111
			H4.111C2.945,21.5,2,20.555,2,19.389V5.611C2,4.445,2.945,3.5,4.111,3.5h15.778C21.055,3.5,22,4.445,22,5.611V19.389z"/>
		<circle fill="none" stroke="#666666" stroke-linecap="round" stroke-miterlimit="10" cx="17.125" cy="7.5" r="1.5"/>
		<path fill="none" stroke="#666666" stroke-width="0.9565" stroke-linecap="round" stroke-miterlimit="10" d="M13.679,14.1
			l1.676-1.543c0.752-0.741,2.014-0.741,2.766,0l2.558,2.444"/>
	</g>
</g>
</svg>
