<?xml version="1.0" encoding="utf-8"?>
<!-- Generator: Adobe Illustrator 19.0.0, SVG Export Plug-In . SVG Version: 6.00 Build 0)  -->
<svg version="1.1" id="图层_1" xmlns="http://www.w3.org/2000/svg" xmlns:xlink="http://www.w3.org/1999/xlink" x="0px" y="0px"
	 width="32px" height="32px" viewBox="0 0 32 32" style="enable-background:new 0 0 32 32;" xml:space="preserve">
<style type="text/css">
	.st0{fill:#FFFFFF;}
</style>
<g>
	<path class="st0" d="M27.6,25.7l0.2-0.2c0.8-0.8,0.9-2.3,0.1-3.1l-2.8-2.8c-0.8-0.8-2.1-0.4-2.9,0.4L22,20.1L27.6,25.7z"/>
	<path class="st0" d="M12.2,10.3l0.2-0.2c0.9-0.8,1-2.3,0.2-3.2L9.7,4.1C8.9,3.2,7.4,3.3,6.6,4.2L6.3,4.4L12.2,10.3z"/>
	<path class="st0" d="M20.6,21.2c-0.6,0.1-1.2,0-1.7-0.5l-2.6-2.6l-2.3-2.3l-2.6-2.6c-0.5-0.5-0.5-1-0.3-1.4L5.1,5.8
		c-2.8,3.8-1.8,7.7,1.4,11.5c1,1.4,2.3,2.9,3.8,4.4c1.6,1.6,3.1,2.9,4.5,3.9c3.8,3.1,7.6,4,11.3,1.3L20.6,21.2z"/>
</g>
</svg>
