<svg id="Layer_1" data-name="Layer 1" xmlns="http://www.w3.org/2000/svg" width="30.54" height="20" viewBox="0 0 30.54 20">
    <defs>
    <style>.cls-1,.cls-3,.cls-4{fill:#fff;}.cls-1{opacity:0.6;}.cls-2{fill:#adc8f7;}.cls-4{opacity:0.8;}
    </style>
    </defs>
    <title>cloud</title>
    <path class="cls-1" d="M414.88-16.5a8.72,8.72,0,0,1-5.47,8.11l-10.17-8.25h0a6.28,6.28,0,0,0-1.81-1l.06-.38a8.76,8.76,0,0,1,8.62-7.21A8.77,8.77,0,0,1,414.88-16.5Z" transform="translate(-388.8 25.27)"/><line class="cls-2" x1="8.69" y1="7.22" x2="6.4" y2="20"/><path class="cls-3" d="M402.55-18.24a4.59,4.59,0,0,1-1,2.86,4.6,4.6,0,0,1-3.62,1.75,4.61,4.61,0,0,1-4.61-4.61,4.61,4.61,0,0,1,4.61-4.61A4.61,4.61,0,0,1,402.55-18.24Z" transform="translate(-388.8 25.27)"/>
    <path class="cls-3" d="M419.35-11.68a6.41,6.41,0,0,1-6.4,6.4h-18l14-11.37a6.35,6.35,0,0,1,4-1.43A6.41,6.41,0,0,1,419.35-11.68Z" transform="translate(-388.8 25.27)"/>
    <path class="cls-4" d="M388.8-11.68a6.41,6.41,0,0,0,6.4,6.4h18l-14-11.37h0a6.35,6.35,0,0,0-4-1.43A6.41,6.41,0,0,0,388.8-11.68Z" transform="translate(-388.8 25.27)"/>
</svg>