<?xml version="1.0" encoding="utf-8"?>
<!-- Generator: Adobe Illustrator 16.0.0, SVG Export Plug-In . SVG Version: 6.00 Build 0)  -->
<!DOCTYPE svg PUBLIC "-//W3C//DTD SVG 1.1//EN" "http://www.w3.org/Graphics/SVG/1.1/DTD/svg11.dtd">
<svg version="1.1" id="图层_1" xmlns="http://www.w3.org/2000/svg" xmlns:xlink="http://www.w3.org/1999/xlink" x="0px" y="0px"
	 width="32px" height="32px" viewBox="0 0 32 32" enable-background="new 0 0 32 32" xml:space="preserve">
<path opacity="0.4" fill="#FFFFFF" enable-background="new    " d="M26,12h-3c-1.1,0-2-0.9-2-2V7"/>
<path fill="#FFFFFF" d="M22,5H9C7.343,5,6,6.343,6,8v18c0,1.657,1.343,3,3,3h16c1.657,0,3-1.343,3-3V11L22,5z M15,10h1
	c0.552,0,1,0.448,1,1s-0.448,1-1,1h-1c-0.552,0-1-0.448-1-1S14.448,10,15,10z M11,10h1c0.552,0,1,0.448,1,1s-0.448,1-1,1h-1
	c-0.552,0-1-0.448-1-1S10.448,10,11,10z M23,24H11c-0.552,0-1-0.447-1-1s0.448-1,1-1h12c0.553,0,1,0.447,1,1S23.553,24,23,24z
	 M23,19H11c-0.552,0-1-0.447-1-1s0.448-1,1-1h12c0.553,0,1,0.447,1,1S23.553,19,23,19z M23,12c-1.1,0-2-0.9-2-2V7V6l6,6h-2H23z"/>
</svg>
