<?xml version="1.0" encoding="utf-8"?>
<!-- Generator: Adobe Illustrator 17.0.0, SVG Export Plug-In . SVG Version: 6.00 Build 0)  -->
<!DOCTYPE svg PUBLIC "-//W3C//DTD SVG 1.1//EN" "http://www.w3.org/Graphics/SVG/1.1/DTD/svg11.dtd">
<svg version="1.1" xmlns="http://www.w3.org/2000/svg" xmlns:xlink="http://www.w3.org/1999/xlink" x="0px" y="0px" width="32px"
	 height="32px" viewBox="0 0 32 32" enable-background="new 0 0 32 32" xml:space="preserve">
<g id="图层_12">
	<path fill="#FFFFFF" d="M27.031,5h-21C4.927,5,4,5.889,4,6.994v14C4,22.098,4.927,23,6.031,23h4L16,27.994V23h11.031
		C28.136,23,29,22.098,29,20.994v-14C29,5.889,28.136,5,27.031,5z M20.031,17h-10c-0.552,0-1-0.448-1-1s0.448-1,1-1h10
		c0.552,0,1,0.448,1,1S20.583,17,20.031,17z M23.031,12h-13c-0.552,0-1-0.448-1-1s0.448-1,1-1h13c0.552,0,1,0.448,1,1
		S23.583,12,23.031,12z"/>
</g>
</svg>
