<?xml version="1.0" encoding="utf-8"?>
<!-- Generator: Adobe Illustrator 19.0.0, SVG Export Plug-In . SVG Version: 6.00 Build 0)  -->
<svg version="1.1" id="图层_1" xmlns="http://www.w3.org/2000/svg" xmlns:xlink="http://www.w3.org/1999/xlink" x="0px" y="0px"
	 width="300px" height="300px" viewBox="-147 270.9 300 300" style="enable-background:new -147 270.9 300 300;"
	 xml:space="preserve">
<style type="text/css">
	.st0{fill:#56A0FC;}
	.st1{fill:#FEFEFE;}
</style>
<path class="st0" d="M153,570.9h-300c0,0,0,0,0,0v-300h300L153,570.9C153,570.9,153,570.9,153,570.9z"/>
<path class="st1" d="M19.6,365.6v11h50.8v7.1H19.6v11.5h50.8v7.1H19.6v11.2h50.8v7.1H19.6v11.2h50.8v7.1H19.6v11.2h50.8v7.1H19.6
	v11.2h50.8v7.1H19.6v14.6h65.3v-124H19.6V365.6z M-82.8,361.7v132l94.5,17.8V343.9L-82.8,361.7L-82.8,361.7z M-14.4,456.3h-13.8
	l-8.8-39.1l-11,39.1h-9.5l-13.7-57.5h13.6l5.4,35.8l9-39.5H-29l7.7,43.2l8.2-43.2H0.5L-14.4,456.3L-14.4,456.3z"/>
</svg>
