<?xml version="1.0" encoding="utf-8"?>
<!-- Generator: Adobe Illustrator 19.0.0, SVG Export Plug-In . SVG Version: 6.00 Build 0)  -->
<svg version="1.1" id="图层_1" xmlns="http://www.w3.org/2000/svg" xmlns:xlink="http://www.w3.org/1999/xlink" x="0px" y="0px"
	 width="300px" height="300px" viewBox="-147 270.9 300 300" style="enable-background:new -147 270.9 300 300;"
	 xml:space="preserve">
<style type="text/css">
	.st0{fill:#DA5336;}
	.st1{fill:#FFFFFF;}
</style>
<path class="st0" d="M153,570.9h-300v-300h300V570.9z"/>
<path class="st1" d="M19.5,488.9v-14.8h51.3v-7.2H19.5v-11.3h51.3v-7.2H19.5v-11.3h51.3v-7.2H19.5v-11.3h51.3v-7.2H19.5v-11.3h51.3
	v-7.2H19.5v-11.6h51.3v-7.2H19.5v-10.9h66v125.7H19.5z M-83.1,447v-87.3l95.1-18v110.9v57.7l-95.1-17.9V447z M-76.4,464.4
	c0.5,1,2.1,4.7,5.9,2.3c5.6-5.8,10.5-12.5,14.1-21.4c9.4-2.6,18.6-4.7,28.9-7.5c2.9,0.7,15.8,9,29,6.6c1.8-0.4,1.7-1.4,1.6-2.4
	c-6.9-2.1-12.4-0.4-20.8-4.5c-1.1-0.3-0.8-0.3-1.4-0.6c-0.4-0.3-0.6-0.5,0.1-0.8c8.7-0.3,16.5,0.2,22.9,1.9
	c-6.1-11.6-18.4-2.9-28.6-5.5c-13.4-3.4-20.5-24-16.4-37c-1.1,2.6-1.6,5.5-2.2,8.2c-0.4,1.2-0.7,1.3-0.9,0.8
	c-1.7-7.8-3.3-16.5-1.2-22c0.4-0.3,1.5-0.6,1.9-0.3c1.6,1.8,2,2.6,2.5,6.8c0.6,1.7,1.1,0.9,1.3-0.9c0.2-2.4-0.5-4.7-1.7-6.9
	c-0.9-1.6-2.5-1.8-4.5-1c-1,0.4-1.7,1.3-2.4,2.8c-2.1,10.9,2.6,20,1.2,29.7c-1.9,13.7-18,46.8-26.3,51.8c1.6-8.3,6.6-10.5,10.4-16.4
	c-5.6,2.8-10.9,6.8-12.8,13.1C-76.9,463.5-76.7,463.6-76.4,464.4z"/>
</svg>
