<?xml version="1.0" encoding="utf-8"?>
<!-- Generator: Adobe Illustrator 19.0.0, SVG Export Plug-In . SVG Version: 6.00 Build 0)  -->
<svg version="1.1" id="图层_1" xmlns="http://www.w3.org/2000/svg" xmlns:xlink="http://www.w3.org/1999/xlink" x="0px" y="0px"
	 width="300px" height="300px" viewBox="-147 270.9 300 300" style="enable-background:new -147 270.9 300 300;"
	 xml:space="preserve">
<style type="text/css">
	.st0{fill:#EC7434;}
	.st1{fill:#FFFFFF;}
</style>
<path id="XMLID_31_" class="st0" d="M153,570.9h-300v-300h300V570.9z"/>
<g>
	<path class="st1" d="M-69.9,357.9v126l96.6,17.2V340.8L-69.9,357.9z M-5.7,426.5c-2.8,3.8-7.1,5.7-12.9,5.7h-7.8v24.6h-14.4v-66.4
		H-17c5.2,0,9.1,1.8,11.6,5.3c2.6,3.5,3.9,8.6,3.9,15.1C-1.5,417.5-2.9,422.7-5.7,426.5z"/>
	<path id="XMLID_10_" class="st1" d="M-17.1,416.6c1.1-1.4,1.7-3.1,1.7-5.3c0-2.1-0.5-3.8-1.5-5.3c-1-1.4-2.8-2.2-5.5-2.2h-4.1v14.8
		h3.5C-20.1,418.7-18.2,418-17.1,416.6z"/>
	<polygon id="XMLID_8_" class="st1" points="30.5,396.1 62.7,396.1 62.7,420.9 30.5,420.9 30.5,430.4 62.7,430.4 62.7,438.1 
		30.5,438.1 30.5,447.6 62.7,447.6 62.7,455.2 30.5,455.2 30.5,464.8 62.7,464.8 62.7,472.4 30.5,472.4 30.5,482 75.9,482 
		75.9,384.6 30.5,384.6 	"/>
</g>
</svg>
