<?xml version="1.0" encoding="utf-8"?>
<!-- Generator: Adobe Illustrator 19.0.0, SVG Export Plug-In . SVG Version: 6.00 Build 0)  -->
<svg version="1.1" id="图层_1" xmlns="http://www.w3.org/2000/svg" xmlns:xlink="http://www.w3.org/1999/xlink" x="0px" y="0px"
	 width="300px" height="300px" viewBox="-147 270.9 300 300" style="enable-background:new -147 270.9 300 300;"
	 xml:space="preserve">
<style type="text/css">
	.st0{fill:#E6DA2E;}
	.st1{fill:#FEFEFE;}
</style>
<path id="XMLID_30_" class="st0" d="M153,570.9h-300v-300h300V570.9z"/>
<path class="st1" d="M-56.3,338.3V374h-23.3v94.7h23.3v34.8H85.6V338.3H-56.3z M-56.3,397.7H-9v11h-18.3v38h-11.1v-38h-17.9V397.7z
	 M68.4,492.4H-38.1c-3.3,0-5.9-2.7-5.9-5.9v-17.7H3.3c6.5,0,11.8-5.3,11.8-11.8v-11.8h41.4c3.3,0,5.9-2.7,5.9-5.9
	c0-3.3-2.7-5.9-5.9-5.9H15.1v-11.8h41.4c3.3,0,5.9-2.7,5.9-5.9c0-3.3-2.7-5.9-5.9-5.9H15.1V398h41.4c3.3,0,5.9-2.7,5.9-5.9
	c0-3.3-2.7-5.9-5.9-5.9H15.1c0-6.5-5.3-11.8-11.8-11.8H-44v-18c0-3.3,2.7-5.9,5.9-5.9H68.4c3.3,0,5.9,2.7,5.9,5.9v130.1l0,0
	C74.3,489.7,71.7,492.4,68.4,492.4z"/>
</svg>
