<?xml version="1.0" encoding="utf-8"?>
<!-- Generator: Adobe Illustrator 19.0.0, SVG Export Plug-In . SVG Version: 6.00 Build 0)  -->
<svg version="1.1" id="图层_1" xmlns="http://www.w3.org/2000/svg" xmlns:xlink="http://www.w3.org/1999/xlink" x="0px" y="0px"
	 width="300px" height="300px" viewBox="-147 270.9 300 300" style="enable-background:new -147 270.9 300 300;"
	 xml:space="preserve">
<style type="text/css">
	.st0{fill:#3BCD86;}
	.st1{fill:#FFFFFF;}
</style>
<g id="XMLID_34_">
	<path id="XMLID_35_" class="st0" d="M153,570.9h-300v-300h300V570.9z"/>
	<path class="st1" d="M-82.3,363.8v130c32.7,6.2,65.3,12.3,98.1,18.5V345.2C-17,351.4-49.6,357.6-82.3,363.8L-82.3,363.8z M-6,461.5
		c-4.2,0-8.4,0-12.6,0c-1.1,0-1.7-0.2-2.2-1.2l-10.5-19.6c-0.7-1.3-1.1-2.7-1.4-3.6c-4.1,7.6-8.4,15.5-12.7,23.4
		c-0.3,0.5-1,1.1-1.5,1.1c-5.5,0.1-11.1,0.1-17,0.1c0.5-0.8,0.8-1.4,1.1-1.9c6.3-9.7,12.6-19.5,19-29.1c0.7-1.1,0.8-1.9,0.1-3.1
		c-5.8-9.6-11.5-19.3-17.2-28.9c-0.4-0.6-0.7-1.2-1.3-2.2h7.1c3.3,0,6.6-0.1,9.8,0.1c0.7,0,1.6,0.5,1.9,1c3.4,6.8,6.7,13.7,9.9,20.5
		c0.4,0.9,0.7,2,1.1,3.1c0.2-0.3,0.4-0.5,0.5-0.8c3.9-7.7,7.8-15.3,11.7-22.9c0.2-0.4,0.8-1,1.2-1c5.3-0.1,10.5-0.1,16.1-0.1
		c-0.5,0.9-0.8,1.5-1.1,2c-5.9,9.6-11.8,19.2-17.8,28.8c-0.7,1.2-0.8,1.9,0,3.1c6.2,9.8,12.2,19.5,18.3,29.3c0.4,0.6,0.7,1.2,1.2,2
		L-6,461.5L-6,461.5L-6,461.5z M22.8,492.9c0,0-0.1-12.4-0.1-18.9c6.4,0,12.9,0,19.5,0c0-4.5,0-8.7,0-13.1c-6.5,0-12.9,0-19.4,0
		c0-4.3,0-8.5,0-12.8c6.4,0,12.8,0,19.4,0c0-4.4,0-8.6,0-13c-6.5,0-12.9,0-19.4,0c0-4.3,0-8.4,0-12.7c6.5,0,12.9,0,19.5,0
		c0-4.4,0-8.6,0-12.9c-6.5,0-12.9,0-19.4,0c0-4.2,0-8.3,0-12.7c6.5,0,13,0,19.7,0c0-4.5,0-8.7,0-13.1c-6.5,0-13,0-19.7,0
		c0-6.5,0-20,0-20h65.4v129.2H22.8L22.8,492.9z M49,396.7c8.5,0,16.7,0,24.9,0c1.2,0,1.3-0.6,1.3-1.5c0-2.5,0-4.9,0-7.4
		c0-1.3,0-2.7,0-4c-8.9,0-17.6,0-26.2,0C49,388.1,49,392.3,49,396.7L49,396.7z M48.9,409.5c0,3.2,0,6.2,0,9.2c0,3.7,0,3.7,3.8,3.7
		c6.9,0,13.8,0,20.8,0c0.6,0,1.7-0.5,1.7-0.8c0.1-4,0.1-8,0.1-12C66.4,409.5,57.8,409.5,48.9,409.5L48.9,409.5z M75.1,435.3
		c-8.8,0-17.4,0-26.1,0c0,4.3,0,8.5,0,12.7c8.7,0,17.4,0,26.1,0C75.1,443.7,75.1,439.6,75.1,435.3L75.1,435.3z M49,473.7
		c0.4,0.1,0.5,0.2,0.6,0.2c8.1,0,16.2,0,24.3,0.1c1.1,0,1.4-0.5,1.4-1.5c0-3.3-0.1-6.5,0-9.8c0.1-1.5-0.5-1.8-2-1.8
		c-7.5,0.1-15.1,0-22.6,0c-0.5,0-1.1,0.1-1.7,0.1C49,465.3,49,469.5,49,473.7L49,473.7z"/>
</g>
</svg>
