<?xml version="1.0" encoding="utf-8"?>
<!-- Generator: Adobe Illustrator 19.0.0, SVG Export Plug-In . SVG Version: 6.00 Build 0)  -->
<svg version="1.1" id="图层_1" xmlns="http://www.w3.org/2000/svg" xmlns:xlink="http://www.w3.org/1999/xlink" x="0px" y="0px"
	 width="300px" height="300px" viewBox="-147 270.9 300 300" style="enable-background:new -147 270.9 300 300;"
	 xml:space="preserve">
<style type="text/css">
	.st0{fill:#8962A7;}
	.st1{fill:#FFFFFF;}
</style>
<path id="XMLID_31_" class="st0" d="M153,570.9h-300v-300h300V570.9z"/>
<g>
	<path id="XMLID_30_" class="st1" d="M36,331.2v27.4c0,8.1,6.1,14.4,13.9,14.4h26L36,331.2L36,331.2L36,331.2L36,331.2z"/>
	<path class="st1" d="M49.8,382.5c-12.6,0-23-10.8-23-23.8v-27.5H-56c-7.8,0-13.9,6.3-13.9,14.4v150.6c0,8.1,6.1,14.4,13.9,14.4
		H61.5c7.8,0,13.9-6.3,13.9-14.4V382.5H49.8z M-2.5,371.2h-19.6v11.3h19.6v11.4h-19.6v11.3h19.6v11.3h-19.6v11.3h19.6v50.9
		c0,3.1-2.9,5.7-6.5,5.7h-26.2c-3.6,0-6.5-2.5-6.5-5.7v-39.6h19.6v-11.3h-19.6v-11.3h19.6v-11.3h-19.6v-11.3h19.6v-11.3h-19.6v-11.3
		h19.6v-11.4h19.6V371.2z"/>
	<polygon id="XMLID_8_" class="st1" points="-9,473 -35.2,473 -35.2,461.7 -9,461.7 -9,473 	"/>
</g>
</svg>
