<?xml version="1.0" encoding="utf-8"?>
<!-- Generator: Adobe Illustrator 17.0.0, SVG Export Plug-In . SVG Version: 6.00 Build 0)  -->
<!DOCTYPE svg PUBLIC "-//W3C//DTD SVG 1.1//EN" "http://www.w3.org/Graphics/SVG/1.1/DTD/svg11.dtd">
<svg version="1.1" xmlns="http://www.w3.org/2000/svg" xmlns:xlink="http://www.w3.org/1999/xlink" x="0px" y="0px" width="32px"
	 height="32px" viewBox="0 0 32 32" enable-background="new 0 0 32 32" xml:space="preserve">
<g id="图层_27">
	<path fill="none" stroke="#666666" stroke-width="2" stroke-miterlimit="10" d="M19,12.2c0,0.994,0.806,1.8,1.8,1.8h5.4
		c0.994,0,1.8-0.806,1.8-1.8V6.8C28,5.806,28,5,28,5h-3h-4.2C19.806,5,19,5.806,19,6.8V12.2z"/>
	<path fill="none" stroke="#666666" stroke-width="2" stroke-miterlimit="10" d="M15,19.8c0-0.994-0.806-1.8-1.8-1.8H7.8
		C6.806,18,6,18.806,6,19.8v5.4C6,26.194,6,27,6,27h3h4.2c0.994,0,1.8-0.806,1.8-1.8V19.8z"/>
	<path fill="none" stroke="#666666" stroke-width="2" stroke-miterlimit="10" d="M19,19.8c0-0.994,0.806-1.8,1.8-1.8h5.4
		c0.994,0,1.8,0.806,1.8,1.8v5.4c0,0.994,0,1.8,0,1.8h-3h-4.2c-0.994,0-1.8-0.806-1.8-1.8V19.8z"/>
	<path fill="#666666" d="M13.2,4H5v2h2h1h5.2C13.641,6,14,6.358,14,6.8v5.4c0,0.441-0.359,0.8-0.8,0.8H7.8C7.359,13,7,12.642,7,12.2
		V8H5v4.2C5,13.744,6.256,15,7.8,15h5.4c1.544,0,2.8-1.256,2.8-2.8V6.8C16,5.256,14.744,4,13.2,4z"/>
</g>
</svg>
