<?xml version="1.0" encoding="utf-8"?>
<!-- Generator: Adobe Illustrator 21.0.0, SVG Export Plug-In . SVG Version: 6.00 Build 0)  -->
<svg version="1.1" id="图层_1" xmlns="http://www.w3.org/2000/svg" xmlns:xlink="http://www.w3.org/1999/xlink" x="0px" y="0px"
	 width="32px" height="32px" viewBox="0 0 32 32" style="enable-background:new 0 0 32 32;" xml:space="preserve">
<style type="text/css">
	.st0{fill:none;stroke:#787878;stroke-width:2;}
</style>
<title>leftNav-clipboard-normal</title>
<desc>Created with Sketch.</desc>
<g id="web-剪贴板-1-copy" transform="translate(-26.000000, -448.000000)">
	<g id="leftNav-clipboard-normal" transform="translate(27.000000, 449.000000)">
		<path id="Stroke-1" class="st0" d="M21.8,5.5h1.6c0.9,0,1.6,0.7,1.6,1.6v19.7c0,0.9-0.7,1.6-1.6,1.6H6.6c-0.9,0-1.6-0.7-1.6-1.6
			V7.1c0-0.9,0.7-1.6,1.6-1.6h1.9"/>
		<path id="Stroke-3" class="st0" d="M17.2,3.6V3.2C17.2,2,16.2,1,15,1c-1.2,0-2.2,1-2.2,2.2v0.4h-1.7c-1.4,0-2.6,1.2-2.6,2.6V7
			h12.9V6.2c0-1.4-1.2-2.6-2.6-2.6H17.2z"/>
		<polyline id="Stroke-5" class="st0" points="10.3,17.6 13.5,20.8 19.7,12.9 		"/>
	</g>
</g>
</svg>
