<?xml version="1.0" encoding="utf-8"?>
<!-- Generator: Adobe Illustrator 17.0.0, SVG Export Plug-In . SVG Version: 6.00 Build 0)  -->
<!DOCTYPE svg PUBLIC "-//W3C//DTD SVG 1.1//EN" "http://www.w3.org/Graphics/SVG/1.1/DTD/svg11.dtd">
<svg version="1.1" xmlns="http://www.w3.org/2000/svg" xmlns:xlink="http://www.w3.org/1999/xlink" x="0px" y="0px" width="32px"
	 height="32px" viewBox="0 0 32 32" enable-background="new 0 0 32 32" xml:space="preserve">
<g id="图层_25">
	
		<circle fill="none" stroke="#666666" stroke-width="2" stroke-linejoin="round" stroke-miterlimit="10" cx="16.531" cy="8.061" r="4.426"/>
	<path fill="#666666" d="M16.531,12.14c-1.193,0-2.61-0.084-3.231,0.26l1.892,1.909c0.128-0.103,0.726-0.169,1.339-0.169
		c4.75,0,8.615,3.837,8.615,8.553c0,4.088-2.778,4.808-8.615,4.808c-5.837,0-8.615-0.72-8.615-4.808c0-3.33,1.931-6.214,4.736-7.626
		l-1.472-1.472c-3.143,1.834-5.263,5.221-5.263,9.098c0,6.808,6.645,6.808,10.615,6.808s10.615,0,10.615-6.808
		C27.146,16.874,22.384,12.14,16.531,12.14z"/>
</g>
</svg>
