<?xml version="1.0" encoding="utf-8"?>
<!-- Generator: Adobe Illustrator 16.0.0, SVG Export Plug-In . SVG Version: 6.00 Build 0)  -->
<!DOCTYPE svg PUBLIC "-//W3C//DTD SVG 1.1//EN" "http://www.w3.org/Graphics/SVG/1.1/DTD/svg11.dtd">
<svg version="1.1" id="图层_1" xmlns="http://www.w3.org/2000/svg" xmlns:xlink="http://www.w3.org/1999/xlink" x="0px" y="0px"
	 width="32px" height="32px" viewBox="0 0 32 32" enable-background="new 0 0 32 32" xml:space="preserve">
<g>
	<rect x="4" y="13" fill="#666767" width="24" height="2"/>
</g>
<path fill="#666767" d="M26.273,9h-7.57l-4.5-3H7.727C5.672,6,4,7.672,4,9.728V11h2V9.728C6,8.775,6.775,8,7.727,8h5.87l4.5,3h8.174
	C27.225,11,28,11.775,28,12.728v11.545C28,25.225,27.225,26,26.273,26H7.727C6.775,26,6,25.225,6,24.271V13H4v11.271
	C4,26.328,5.672,28,7.727,28h18.546C28.328,28,30,26.328,30,24.271V12.728C30,10.672,28.328,9,26.273,9z"/>
</svg>
