<?xml version="1.0" encoding="utf-8"?>
<!-- Generator: Adobe Illustrator 16.0.0, SVG Export Plug-In . SVG Version: 6.00 Build 0)  -->
<!DOCTYPE svg PUBLIC "-//W3C//DTD SVG 1.1//EN" "http://www.w3.org/Graphics/SVG/1.1/DTD/svg11.dtd">
<svg version="1.1" id="图层_1" xmlns="http://www.w3.org/2000/svg" xmlns:xlink="http://www.w3.org/1999/xlink" x="0px" y="0px"
	 width="32px" height="32px" viewBox="0 0 32 32" enable-background="new 0 0 32 32" xml:space="preserve">
<line fill="none" stroke="#666767" stroke-width="2" stroke-linejoin="round" stroke-miterlimit="10" x1="10" y1="11" x2="23" y2="11"/>
<line fill="none" stroke="#666767" stroke-width="2" stroke-linejoin="round" stroke-miterlimit="10" x1="10" y1="16" x2="20" y2="16"/>
<path fill="#666767" d="M27,4H6C4.346,4,3,5.346,3,7v14c0,1.654,1.346,3,3,3h3.638l5.722,4.77C15.543,28.921,15.771,29,16,29
	c0.144,0,0.289-0.031,0.424-0.096C16.775,28.741,17,28.389,17,28v-2v-2v-2h-1c-0.552,0-1,0.447-1,1v2.865l-4.36-3.635
	C10.46,22.082,10.234,22,10,22H6c-0.551,0-1-0.447-1-1V7c0-0.552,0.449-1,1-1h21c0.551,0,1,0.448,1,1v14c0,0.553-0.449,1-1,1h-8v2h8
	c1.654,0,3-1.346,3-3V7C30,5.346,28.654,4,27,4z"/>
</svg>
