<?xml version="1.0" encoding="utf-8"?>
<!-- Generator: Adobe Illustrator 17.0.0, SVG Export Plug-In . SVG Version: 6.00 Build 0)  -->
<!DOCTYPE svg PUBLIC "-//W3C//DTD SVG 1.1//EN" "http://www.w3.org/Graphics/SVG/1.1/DTD/svg11.dtd">
<svg version="1.1" xmlns="http://www.w3.org/2000/svg" xmlns:xlink="http://www.w3.org/1999/xlink" x="0px" y="0px" width="32px"
	 height="32px" viewBox="0 0 32 32" enable-background="new 0 0 32 32" xml:space="preserve">
<g id="图层_30">
	<path fill="none" stroke="#666666" stroke-width="2" stroke-linecap="round" stroke-linejoin="round" stroke-miterlimit="10" d="
		M27.534,22.595l-3.385-3.385c0.44-1.665,0.028-3.508-1.277-4.813s-3.148-1.717-4.813-1.277l1.631,1.631
		c0.976,0.976,0.976,2.559,0,3.535c-0.976,0.976-2.559,0.976-3.535,0l-1.631-1.631c-0.44,1.665-0.028,3.508,1.277,4.813
		c1.305,1.305,3.148,1.717,4.813,1.277l3.385,3.385"/>
	<g>
		<path fill="#666666" d="M5,25V11c0-0.552,0.449-1,1-1h3V8H6c-1.654,0-3,1.346-3,3v14c0,1.654,1.346,3,3,3h19v-2H6
			C5.449,26,5,25.552,5,25z"/>
		<path fill="#666666" d="M27,8H10v2h17c0.551,0,1,0.448,1,1v14c0,0.552-0.449,1-1,1h-4l2,2h2c1.654,0,3-1.346,3-3V11
			C30,9.346,28.654,8,27,8z"/>
	</g>
	<g>
		<path fill="#666666" d="M20,6h2c0-1.654-1.346-3-3-3h-6c-1.654,0-3,1.346-3,3v2c0,0.553,0.448,1,1,1s1-0.447,1-1V6
			c0-0.552,0.449-1,1-1h6C19.551,5,20,5.448,20,6z"/>
		<path fill="#666666" d="M21,9c0.552,0,1-0.447,1-1h-2C20,8.553,20.448,9,21,9z"/>
	</g>
</g>
</svg>
