<?xml version="1.0" encoding="utf-8"?>
<!-- Generator: Adobe Illustrator 17.0.0, SVG Export Plug-In . SVG Version: 6.00 Build 0)  -->
<!DOCTYPE svg PUBLIC "-//W3C//DTD SVG 1.1//EN" "http://www.w3.org/Graphics/SVG/1.1/DTD/svg11.dtd">
<svg version="1.1" xmlns="http://www.w3.org/2000/svg" xmlns:xlink="http://www.w3.org/1999/xlink" x="0px" y="0px" width="32px"
	 height="32px" viewBox="0 0 32 32" enable-background="new 0 0 32 32" xml:space="preserve">
<g id="图层_22">
	<path fill="#666666" stroke="#787878" stroke-width="1.0523" stroke-miterlimit="10" d="M14.496-1"/>
	<path fill="#666666" d="M23.64,12.471L12.988,5.213c-0.614-0.423-1.27-0.647-1.896-0.647C9.86,4.565,9,5.424,9,6.652V20h2V6.652
		c0-0.039,0.003-0.066,0.002-0.077c0.062-0.018,0.307-0.091,0.855,0.287l10.651,7.258C22.821,14.335,23,14.594,23,14.829
		c0,0.285-0.267,0.512-0.417,0.615L11.82,22.71c-0.267,0.184-0.547,0.294-0.75,0.294l-0.056,0.024c0,0-0.014-0.031-0.014-0.111V22H9
		v0.917c0,1.229,0.851,2.087,2.07,2.087c0.62,0,1.271-0.225,1.877-0.642l10.763-7.266C24.53,16.53,25,15.704,25,14.829
		C25,13.926,24.506,13.067,23.64,12.471z"/>
</g>
</svg>
