<?xml version="1.0" encoding="utf-8"?>
<!-- Generator: Adobe Illustrator 17.0.0, SVG Export Plug-In . SVG Version: 6.00 Build 0)  -->
<!DOCTYPE svg PUBLIC "-//W3C//DTD SVG 1.1//EN" "http://www.w3.org/Graphics/SVG/1.1/DTD/svg11.dtd">
<svg version="1.1" xmlns="http://www.w3.org/2000/svg" xmlns:xlink="http://www.w3.org/1999/xlink" x="0px" y="0px" width="32px"
	 height="32px" viewBox="0 0 32 32" enable-background="new 0 0 32 32" xml:space="preserve">
<g id="图层_14">
	<path fill="#1FBBDE" d="M15,12.2c0,0.994-0.806,1.8-1.8,1.8H7.8C6.806,14,6,13.194,6,12.2V6.8C6,5.806,6,5,6,5h3h4.2
		C14.194,5,15,5.806,15,6.8V12.2z"/>
	<path opacity="0.7" fill="none" stroke="#1FBBDE" stroke-width="2" stroke-miterlimit="10" d="M19,12.2c0,0.994,0.806,1.8,1.8,1.8
		h5.4c0.994,0,1.8-0.806,1.8-1.8V6.8C28,5.806,28,5,28,5h-3h-4.2C19.806,5,19,5.806,19,6.8V12.2z"/>
	<path opacity="0.7" fill="none" stroke="#1FBBDE" stroke-width="2" stroke-miterlimit="10" d="M15,19.8c0-0.994-0.806-1.8-1.8-1.8
		H7.8C6.806,18,6,18.806,6,19.8v5.4C6,26.194,6,27,6,27h3h4.2c0.994,0,1.8-0.806,1.8-1.8V19.8z"/>
	<path opacity="0.7" fill="none" stroke="#1FBBDE" stroke-width="2" stroke-miterlimit="10" d="M19,19.8c0-0.994,0.806-1.8,1.8-1.8
		h5.4c0.994,0,1.8,0.806,1.8,1.8v5.4c0,0.994,0,1.8,0,1.8h-3h-4.2c-0.994,0-1.8-0.806-1.8-1.8V19.8z"/>
</g>
</svg>
