<?xml version="1.0" encoding="utf-8"?>
<!-- Generator: Adobe Illustrator 21.0.0, SVG Export Plug-In . SVG Version: 6.00 Build 0)  -->
<svg version="1.1" id="Layer_1" xmlns="http://www.w3.org/2000/svg" xmlns:xlink="http://www.w3.org/1999/xlink" x="0px" y="0px"
	 width="32px" height="32px" viewBox="0 0 32 32" style="enable-background:new 0 0 32 32;" xml:space="preserve">
<style type="text/css">
	.st0{fill:#1FBBDE;}
</style>
<g>
	<path class="st0" d="M20,4.2h-1c0-1-1.3-3-3-3s-3,2-3,3h-1c-1.7,0-3,1.6-3,3.2v1.8h14V7.4C23,5.8,21.7,4.2,20,4.2z M22,8.2H10V7.4
		c0-1.1,0.9-2.2,2-2.2h2V4.4c0-1.1,0.9-2,2-2s2,0.9,2,2v0.8h2c1.1,0,2,1.1,2,2.2V8.2z"/>
	<path class="st0" d="M24,6.2h-2.3c0.2,1,0.3,0.9,0.3,1.2v0.8H10V7.4c0-0.4,0.1-0.2,0.3-1.2H8c-1.7,0-3,1.6-3,3.2v18
		c0,1.7,1.3,2.8,3,2.8h16c1.7,0,3-1.1,3-2.8v-18C27,7.8,25.7,6.2,24,6.2z M14.9,23l-4.1-4l1.4-1.4l2.5,2.4l5.5-7l1.6,1.2L14.9,23z"
		/>
</g>
</svg>
