<?xml version="1.0" encoding="utf-8"?>
<!-- Generator: Adobe Illustrator 17.0.0, SVG Export Plug-In . SVG Version: 6.00 Build 0)  -->
<!DOCTYPE svg PUBLIC "-//W3C//DTD SVG 1.1//EN" "http://www.w3.org/Graphics/SVG/1.1/DTD/svg11.dtd">
<svg version="1.1" xmlns="http://www.w3.org/2000/svg" xmlns:xlink="http://www.w3.org/1999/xlink" x="0px" y="0px" width="32px"
	 height="32px" viewBox="0 0 32 32" enable-background="new 0 0 32 32" xml:space="preserve">
<g id="图层_20">
	<path fill="none" stroke="#1FBBDE" stroke-width="2" stroke-linecap="round" stroke-linejoin="round" stroke-miterlimit="10" d="
		M11,9V7c0-1.105,0.895-2,2-2h6c1.105,0,2,0.895,2,2v2"/>
	<path opacity="0.3" fill="#FFFFFF" d="M29,25v-0.939l-4.852-4.852c0.44-1.665,0.028-3.508-1.277-4.813
		c-1.305-1.305-3.148-1.717-4.813-1.277l1.631,1.631c0.976,0.976,0.976,2.559,0,3.536c-0.976,0.976-2.559,0.976-3.536,0
		l-1.631-1.631c-0.44,1.665-0.028,3.508,1.277,4.813c1.305,1.305,3.148,1.717,4.813,1.277L24.868,27H27C28.105,27,29,26.105,29,25z"
		/>
	<path fill="#1FBBDE" d="M27,9H6c-1.105,0-2,0.895-2,2v14c0,1.105,0.895,2,2,2h18.868l-4.255-4.255
		c-1.665,0.44-3.508,0.028-4.813-1.277c-1.305-1.305-1.717-3.148-1.277-4.813l1.631,1.631c0.976,0.976,2.559,0.976,3.536,0
		c0.976-0.976,0.976-2.559,0-3.536l-1.631-1.631c1.665-0.44,3.508-0.028,4.813,1.277c1.305,1.305,1.717,3.148,1.277,4.813L29,24.061
		V11C29,9.895,28.105,9,27,9z"/>
</g>
</svg>
