<?xml version="1.0" encoding="utf-8"?>
<!-- Generator: Adobe Illustrator 17.0.0, SVG Export Plug-In . SVG Version: 6.00 Build 0)  -->
<!DOCTYPE svg PUBLIC "-//W3C//DTD SVG 1.1//EN" "http://www.w3.org/Graphics/SVG/1.1/DTD/svg11.dtd">
<svg version="1.1" id="图层_1" xmlns="http://www.w3.org/2000/svg" xmlns:xlink="http://www.w3.org/1999/xlink" x="0px" y="0px"
	 width="28px" height="28px" viewBox="0 0 28 28" enable-background="new 0 0 28 28" xml:space="preserve">
<path fill="none" stroke="#FFFFFF" stroke-linecap="round" stroke-miterlimit="10" d="M5.179,17.315l3.818-3.729
	c0.781-0.78,2.092-0.78,2.873,0l5.773,5.729"/>
<path fill="none" stroke="#FFFFFF" stroke-linecap="round" stroke-miterlimit="10" d="M16.625,15.718l1.469-1.411
	c0.504-0.504,1.353-0.504,1.858,0l3.44,2.411"/>
<path fill="none" stroke="#FFFFFF" stroke-linecap="round" stroke-miterlimit="10" d="M24.5,20.389c0,1.166-0.945,2.111-2.111,2.111
	H6.611c-1.166,0-2.111-0.945-2.111-2.111V6.611C4.5,5.445,5.445,4.5,6.611,4.5h15.777c1.166,0,2.111,0.945,2.111,2.111V20.389z"/>
<circle fill="none" stroke="#FFFFFF" stroke-linecap="round" stroke-miterlimit="10" cx="19.188" cy="8.062" r="1.062"/>
</svg>
