<?xml version="1.0" encoding="utf-8"?>
<!-- Generator: Adobe Illustrator 17.0.0, SVG Export Plug-In . SVG Version: 6.00 Build 0)  -->
<!DOCTYPE svg PUBLIC "-//W3C//DTD SVG 1.1//EN" "http://www.w3.org/Graphics/SVG/1.1/DTD/svg11.dtd">
<svg version="1.1" id="图层_1" xmlns="http://www.w3.org/2000/svg" xmlns:xlink="http://www.w3.org/1999/xlink" x="0px" y="0px"
	 width="28px" height="28px" viewBox="0 0 28 28" enable-background="new 0 0 28 28" xml:space="preserve">
<g>
	<path fill="#FFFFFF" d="M13.318,4.989c2.28,0,4.424,0.888,6.036,2.5c1.612,1.612,2.5,3.756,2.5,6.036c0,2.28-0.888,4.424-2.5,6.036
		c-1.612,1.612-3.756,2.5-6.036,2.5c-2.28,0-4.424-0.888-6.036-2.5c-1.612-1.612-2.5-3.755-2.5-6.036c0-2.28,0.888-4.424,2.5-6.036
		C8.894,5.877,11.038,4.989,13.318,4.989 M13.318,4.026c-2.431,0-4.862,0.928-6.717,2.783c-3.71,3.71-3.71,9.725,0,13.434
		c1.855,1.855,4.286,2.783,6.717,2.783s4.863-0.928,6.718-2.783c3.71-3.709,3.71-9.724,0-13.434
		C18.18,4.953,15.749,4.026,13.318,4.026L13.318,4.026z"/>
</g>
<line fill="none" stroke="#FFFFFF" stroke-linecap="round" stroke-miterlimit="10" x1="13.5" y1="18" x2="13.5" y2="9"/>
<line fill="none" stroke="#FFFFFF" stroke-linecap="round" stroke-miterlimit="10" x1="9" y1="13.5" x2="18" y2="13.5"/>
<line fill="none" stroke="#FFFFFF" stroke-linecap="round" stroke-miterlimit="10" x1="19.65" y1="19.857" x2="25.106" y2="25.313"/>
</svg>
