<?xml version="1.0" encoding="utf-8"?>
<!-- Generator: Adobe Illustrator 19.0.0, SVG Export Plug-In . SVG Version: 6.00 Build 0)  -->
<svg version="1.1" id="图层_1" xmlns="http://www.w3.org/2000/svg" xmlns:xlink="http://www.w3.org/1999/xlink" x="0px" y="0px"
	 viewBox="0 0 30 30" width="30" height="30" style="enable-background:new 0 0 30 30;" xml:space="preserve">
<style type="text/css">
	.st0{fill:#AAAAAA;}
	.st1{fill:#FFFFFF;}
	.st2{fill:#4D4D4D;}
	.st3{fill-rule:evenodd;clip-rule:evenodd;fill:#FFFFFF;}
</style>
<g id="XMLID_21_">
	<path id="XMLID_56_" class="st0" d="M22,29.5H8c-0.6,0-1-0.5-1-1v-27c0-0.6,0.4-1,1-1h14c0.5,0,1,0.4,1,1v27
		C23,29,22.6,29.5,22,29.5z"/>
</g>
<g id="矩形_9">
	<path id="XMLID_18_" class="st1" d="M23,4.7H7v19h16V4.7L23,4.7z"/>
</g>
<g id="Forma_1_拷贝_9">
	<g id="XMLID_11_">
		<path id="XMLID_15_" class="st2" d="M17.5,13.5L13,10.9c-0.2-0.1-1-0.4-1,0.4v5.9c0,0.9,0.8,0.6,1,0.5l4.5-2.6
			c0.3-0.2,0.5-0.4,0.5-0.7C18,13.9,17.8,13.7,17.5,13.5z"/>
	</g>
</g>
<g id="矩形_10">
	<g id="XMLID_6_">
		<path id="XMLID_7_" class="st3" d="M13,3.7h2v-1h-2V3.7z M16,2.7v1h1v-1H16z"/>
	</g>
</g>
<g id="圆角矩形_19">
	<g id="XMLID_4_">
		<path id="XMLID_5_" class="st3" d="M16.5,25.7h-3c-0.3,0-0.5,0.2-0.5,0.5c0,0.3,0.2,0.5,0.5,0.5h3c0.3,0,0.5-0.2,0.5-0.5
			C17,26,16.8,25.7,16.5,25.7z"/>
	</g>
</g>
</svg>
