<?xml version="1.0" encoding="utf-8"?>
<!-- Generator: Adobe Illustrator 19.0.0, SVG Export Plug-In . SVG Version: 6.00 Build 0)  -->
<svg version="1.1" id="图层_1" xmlns="http://www.w3.org/2000/svg" xmlns:xlink="http://www.w3.org/1999/xlink" x="0px" y="0px"
	 viewBox="0 0 27 27" width="27" height="27" style="enable-background:new 0 0 27 27;" xml:space="preserve">
<style type="text/css">
	.st0{fill:#A7ABAC;}
	.st1{fill:#FFFFFF;}
	.st2{fill-rule:evenodd;clip-rule:evenodd;fill:#4A4D51;}
</style>
<g id="XMLID_1_">
	<path id="XMLID_10_" class="st0" d="M25,7.5l-3-1l-1-2c-1-1.9-1.9-2-3-2H9c-1.1,0-2.3,0.4-3,2l-1,2l-3,1c-1.1,0.3-2,0.9-2,2v13
		c0,1.1,0.9,2,2,2h23c1.1,0,2-0.9,2-2v-13C27,8.4,26.4,7.9,25,7.5z M13.5,22.5C9.4,22.5,6,19.1,6,15s3.4-7.5,7.5-7.5
		c4.1,0,7.5,3.4,7.5,7.5S17.6,22.5,13.5,22.5z"/>
	<path id="XMLID_13_" class="st1" d="M13.5,7.5C9.4,7.5,6,10.9,6,15s3.4,7.5,7.5,7.5c4.1,0,7.5-3.4,7.5-7.5S17.6,7.5,13.5,7.5z"/>
</g>
<g id="椭圆_3">
	<path id="XMLID_2_" class="st2" d="M9,15.5h2c0-1.7,1.3-3,3-3v-2C11.2,10.5,9,12.7,9,15.5z"/>
</g>
</svg>
