<?xml version="1.0" encoding="utf-8"?>
<!-- Generator: Adobe Illustrator 19.0.0, SVG Export Plug-In . SVG Version: 6.00 Build 0)  -->
<svg version="1.1" id="图层_1" xmlns="http://www.w3.org/2000/svg" xmlns:xlink="http://www.w3.org/1999/xlink" x="0px" y="0px"
	 viewBox="0 0 27 27" width="27" height="27" style="enable-background:new 0 0 27 27;" xml:space="preserve">
<style type="text/css">
	.st0{fill:#FFFFFF;}
	.st1{fill-rule:evenodd;clip-rule:evenodd;fill:#FFFFFF;}
</style>
<g id="椭圆_2">
	<path id="XMLID_3_" class="st0" d="M18,3.5c0.8,0,1.4,0,2.1,1.4l1,2l0.2,0.4l0.4,0.1l3,1l0.2,0.1c0,0,1.2,0.4,1.2,1.4v12.6
		c0,0.6-0.4,1-1,1H2c-0.6,0-1-0.4-1-1V9.8c0-0.9,1.2-1.3,1.2-1.3l0.2-0.1l3-1l0.4-0.1l0.2-0.4l1-2C7.4,3.9,8,3.5,9,3.5H18
		 M13.5,22.5c4.1,0,7.5-3.4,7.5-7.5c0-4.1-3.4-7.5-7.5-7.5C9.4,7.5,6,10.9,6,15C6,19.1,9.4,22.5,13.5,22.5 M18,2.5H9
		c-1.1,0-2.3,0.4-3,2l-1,2l-3,1c-1.1,0.3-2,0.9-2,2v13c0,1.1,0.9,2,2,2h23c1.1,0,2-0.9,2-2v-13c0-1.1-0.6-1.6-2-2l-3-1l-1-2
		C20,2.6,19.1,2.5,18,2.5L18,2.5z M13.5,21.5C9.9,21.5,7,18.6,7,15s2.9-6.5,6.5-6.5c3.6,0,6.5,2.9,6.5,6.5S17.1,21.5,13.5,21.5
		L13.5,21.5z"/>
</g>
<g id="椭圆_3">
	<path id="XMLID_2_" class="st1" d="M9,15.5h2c0-1.7,1.3-3,3-3v-2C11.2,10.5,9,12.7,9,15.5z"/>
</g>
</svg>
