<?xml version="1.0" encoding="utf-8"?>
<!-- Generator: Adobe Illustrator 17.0.0, SVG Export Plug-In . SVG Version: 6.00 Build 0)  -->
<!DOCTYPE svg PUBLIC "-//W3C//DTD SVG 1.1//EN" "http://www.w3.org/Graphics/SVG/1.1/DTD/svg11.dtd">
<svg version="1.1" id="图层_1" xmlns="http://www.w3.org/2000/svg" xmlns:xlink="http://www.w3.org/1999/xlink" x="0px" y="0px"
	 width="30px" height="30px" viewBox="0 0 30 30" enable-background="new 0 0 30 30" xml:space="preserve">
<g id="mute_1_">
	<g>
		<path fill="#FFFFFF" d="M6.894,18.62c-0.83-0.722-1.509-1.901-1.509-2.62s0.679-1.898,1.509-2.62l6.789-6.068
			C14.513,6.59,15,6.9,15,8v16c0,1.1-0.487,1.41-1.317,0.688L6.894,18.62z"/>
	</g>
	<g>
		<path fill="#FFFFFF" d="M14,18.308C14,19.242,13.242,20,12.308,20H5.692C4.758,20,4,19.242,4,18.308v-4.615
			C4,12.758,4.758,12,5.692,12h6.615C13.242,12,14,12.758,14,13.692V18.308z"/>
	</g>
	<g>
		
			<line fill="none" stroke="#FFFFFF" stroke-linecap="round" stroke-miterlimit="10" x1="17.611" y1="12.611" x2="25.389" y2="20.389"/>
		
			<line fill="none" stroke="#FFFFFF" stroke-linecap="round" stroke-miterlimit="10" x1="25.389" y1="12.611" x2="17.611" y2="20.389"/>
	</g>
</g>
</svg>
