<?xml version="1.0" encoding="utf-8"?>
<!-- Generator: Adobe Illustrator 19.0.0, SVG Export Plug-In . SVG Version: 6.00 Build 0)  -->
<svg version="1.1" id="图层_1" xmlns="http://www.w3.org/2000/svg" xmlns:xlink="http://www.w3.org/1999/xlink" x="0px" y="0px"
	 width="20.7px" height="60px" viewBox="-574 787.7 20.7 60" style="enable-background:new -574 787.7 20.7 60;"
	 xml:space="preserve">
<style type="text/css">
	.st0{fill:#FFFFFF;}
</style>
<title>play-mode</title>
<path class="st0" d="M-553.8,835.7h-6.4c-3.2,0-4.8,4-5.5,5.6c-0.9,2.1-2.5,4.4-3.9,4.4h-4.2v2h4.2c3.3,0,5.5-5,5.7-5.6
	c0.8-1.9,2-4.4,3.7-4.4h1.4v2.7L-553.8,835.7L-553.8,835.7L-553.8,835.7z"/>
<path class="st0" d="M-553.7,847.7h-6.4c-3.2,0-4.9-4-5.5-5.7c-0.9-2.1-2.5-4.3-3.9-4.3h-4.2v-2h4.2c3.3,0,5.5,5,5.7,5.6
	c0.8,1.9,2,4.4,3.7,4.4h1.4V843L-553.7,847.7L-553.7,847.7L-553.7,847.7z"/>
<path class="st0" d="M-556.2,787.7h-12.5c-2.9,0-5.3,2.4-5.3,5.3v1.4c0,0.9,0.2,1.7,0.6,2.5l1.8-0.9c-0.2-0.5-0.4-1-0.4-1.5v-1.4
	c0-1.8,1.5-3.3,3.3-3.3h8v3L-556.2,787.7z"/>
<path class="st0" d="M-574,799.7h12.6c2.9,0,5.3-2.4,5.3-5.3V793c0-0.9-0.2-1.7-0.6-2.5l-1.8,0.9c0.2,0.5,0.4,1,0.4,1.5v1.4
	c0,1.8-1.5,3.3-3.3,3.3l0,0h-8v-2.9L-574,799.7z"/>
<path class="st0" d="M-556.2,811.7h-12.5c-2.9,0-5.3,2.4-5.3,5.3v1.4c0,0.9,0.2,1.7,0.6,2.5l1.8-0.9c-0.3-0.5-0.4-1-0.4-1.5v-1.4
	c0-1.8,1.5-3.3,3.3-3.3h8v3L-556.2,811.7z"/>
<path class="st0" d="M-560.5,823.7h-11.3l4.5-5v3h5.3C-561.7,822.5-561.1,823.2-560.5,823.7z"/>
<path class="st0" d="M-557.4,815.7c-2.2,0-4.1,1.8-4.1,4.1c0,2.3,1.8,4.1,4.1,4.1c2.3,0,4.1-1.8,4.1-4.1l0,0
	C-553.3,817.5-555.1,815.7-557.4,815.7z M-556.5,822.8h-1.6V819h-1.4l1.6-1.7h1.5L-556.5,822.8L-556.5,822.8z"/>
</svg>
