<?xml version="1.0" encoding="utf-8"?>
<!-- Generator: Adobe Illustrator 17.0.0, SVG Export Plug-In . SVG Version: 6.00 Build 0)  -->
<!DOCTYPE svg PUBLIC "-//W3C//DTD SVG 1.1//EN" "http://www.w3.org/Graphics/SVG/1.1/DTD/svg11.dtd">
<svg version="1.1" xmlns="http://www.w3.org/2000/svg" xmlns:xlink="http://www.w3.org/1999/xlink" x="0px" y="0px" width="24px"
	 height="24px" viewBox="0 0 24 24" enable-background="new 0 0 24 24" xml:space="preserve">
<g id="view-icon-hover">
	<path fill="#1FBBDE" d="M20,8.143C20,8.616,19.616,9,19.143,9h-4.286C14.384,9,14,8.616,14,8.143V3.857C14,3.384,14.384,3,14.857,3
		h4.286C19.616,3,20,3.384,20,3.857V8.143z"/>
	<path fill="#1FBBDE" d="M20,18.143C20,18.616,19.616,19,19.143,19h-4.286C14.384,19,14,18.616,14,18.143v-4.286
		C14,13.384,14.384,13,14.857,13h4.286C19.616,13,20,13.384,20,13.857V18.143z"/>
	<path fill="#1FBBDE" d="M10,18.143C10,18.616,9.616,19,9.143,19H4.857C4.384,19,4,18.616,4,18.143v-4.286
		C4,13.384,4.384,13,4.857,13h4.286C9.616,13,10,13.384,10,13.857V18.143z"/>
	<path fill="#1FBBDE" d="M10,8.143C10,8.616,9.616,9,9.143,9H4.857C4.384,9,4,8.616,4,8.143V3.857C4,3.384,4.384,3,4.857,3h4.286
		C9.616,3,10,3.384,10,3.857V8.143z"/>
</g>
</svg>
